<svg xmlns="http://www.w3.org/2000/svg">
<symbol id="arrow" viewBox="0 0 6 9"> <path fill-rule="evenodd" clip-rule="evenodd" d="M1.35359 0.146484L5.35359 4.14648C5.54885 4.34175 5.54885 4.65833 5.35359 4.85359L1.35359 8.85359L0.646485 8.14648L4.29293 4.50004L0.646484 0.853591L1.35359 0.146484Z" fill="white"/> </symbol>
<symbol id="detective" viewBox="0 0 36 31"> <path d="M18 9.75821C17.6119 9.75821 17.2969 10.0752 17.2969 10.4663C17.2969 10.8571 17.6119 11.1743 18 11.1743C18.3881 11.1743 18.7031 10.8571 18.7031 10.4663C18.7031 10.0752 18.3881 9.75821 18 9.75821Z" fill="#00B2FF"/> <path d="M33.8906 14.0066H31.1548C29.7125 9.85946 27.6199 2.58774 23.8291 0.529671C21.9331 -0.498398 20.141 0.219618 19.4669 1.67833C19.1802 2.29844 18.6075 2.62453 18 2.62453C17.3842 2.62453 16.8162 2.29124 16.5331 1.67888C15.8829 0.269957 14.1336 -0.513887 12.3041 0.380314C8.45261 2.26386 6.29874 9.8282 4.84525 14.0066H2.10938C0.944 14.0066 0 14.9569 0 16.1308C0 17.3018 0.946198 18.2549 2.10938 18.2549H33.8906C35.056 18.2549 36 17.3043 36 16.1308C36 14.9594 35.0538 14.0066 33.8906 14.0066ZM7.31525 11.1743H15.1875C15.5759 11.1743 15.8906 10.8571 15.8906 10.4663C15.8906 10.0752 15.5759 9.75823 15.1875 9.75823H7.80688C9.92642 3.86225 11.9064 2.14908 12.9183 1.65427C14.0221 1.11493 14.9307 1.56631 15.2581 2.27603C15.7739 3.39178 16.8409 4.04065 18 4.04065C19.1618 4.04065 20.2275 3.38929 20.7419 2.27603C21.0789 1.54612 21.9922 1.14203 23.1619 1.77624C24.1784 2.32831 26.1524 4.09845 28.1928 9.75823H20.8125C20.4241 9.75823 20.1094 10.0752 20.1094 10.4663C20.1094 10.8574 20.4241 11.1743 20.8125 11.1743H28.685C29.0404 12.2066 29.4096 13.2717 29.665 14.0066H6.33527C6.58987 13.2736 6.95819 12.211 7.31525 11.1743ZM33.8906 16.8388H2.10938C1.72156 16.8388 1.40625 16.521 1.40625 16.1308C1.40625 15.7397 1.72101 15.4227 2.10938 15.4227H33.8906C34.2784 15.4227 34.5938 15.7402 34.5938 16.1308C34.5938 16.5216 34.2787 16.8388 33.8906 16.8388Z" fill="#00B2FF"/> <path d="M16.5938 21.0872H5.34375C4.95538 21.0872 4.64062 21.4042 4.64062 21.7953V24.6275C4.64062 28.1413 7.47949 31.0001 10.9688 31.0001C13.6126 31.0001 15.9527 29.3624 16.8835 26.8953C17.5905 26.5706 18.4095 26.5706 19.1165 26.8953C20.0473 29.3624 22.3874 30.9998 25.0312 30.9998C28.5205 30.9998 31.3594 28.1413 31.3594 24.6273V21.795C31.3594 21.4039 31.0446 21.087 30.6562 21.087H19.4062C19.0179 21.087 18.7031 21.4039 18.7031 21.795V22.5031H17.2969V21.795C17.2969 21.4042 16.9821 21.0872 16.5938 21.0872ZM10.9688 29.584C8.25485 29.584 6.04688 27.3605 6.04688 24.6275V22.5034H15.8906V24.6275C15.8906 27.3677 13.6945 29.584 10.9688 29.584ZM20.1094 22.5034H29.9531V24.6275C29.9531 27.3605 27.7451 29.584 25.0312 29.584C22.2987 29.584 20.1094 27.361 20.1094 24.6275V22.5034ZM18.7031 23.9195V24.6275C18.7031 24.8538 18.716 25.0792 18.7394 25.303C18.2508 25.2131 17.7492 25.2131 17.2606 25.303C17.284 25.0792 17.2969 24.8538 17.2969 24.6275V23.9195H18.7031Z" fill="#00B2FF"/> <path d="M10.9688 26.7516C9.80557 26.7516 8.85938 25.7985 8.85938 24.6274C8.85938 24.2363 8.54462 23.9194 8.15625 23.9194C7.76788 23.9194 7.45312 24.2363 7.45312 24.6274C7.45312 26.5793 9.03021 28.1677 10.9688 28.1677C11.3571 28.1677 11.6719 27.8505 11.6719 27.4597C11.6719 27.0686 11.3571 26.7516 10.9688 26.7516Z" fill="#00B2FF"/> <path d="M25.0312 28.1677C26.9698 28.1677 28.5469 26.5793 28.5469 24.6274C28.5469 24.2363 28.2321 23.9194 27.8438 23.9194C27.4554 23.9194 27.1406 24.2363 27.1406 24.6274C27.1406 25.7985 26.1944 26.7516 25.0312 26.7516C24.6429 26.7516 24.3281 27.0686 24.3281 27.4597C24.3281 27.8505 24.6429 28.1677 25.0312 28.1677Z" fill="#00B2FF"/> </symbol>
<symbol id="facebook" viewBox="0 0 27 27"> <path fill-rule="evenodd" clip-rule="evenodd" d="M27 13.5C27 6.04462 20.9562 0 13.5 0C6.04379 0 0 6.04462 0 13.5C0 20.9562 6.04369 27 13.5 27C20.9562 27 27 20.9563 27 13.5ZM16.8836 9.29395H15.1437C14.6754 9.29395 14.3464 9.69053 14.3464 10.185V10.9604H16.8312L16.4288 13.4772H14.3455V20.2238H11.8025V13.4772H10.115V10.9604H11.8025V9.677H11.8075C11.8523 8.21392 12.3602 6.82092 14.8383 6.73315V6.72388H16.8836V9.29395Z" fill="#CDCDCD"/> </symbol>
<symbol id="hired" viewBox="0 0 35 35"> <path d="M31.2638 27.8931C31.639 27.3746 31.8609 26.7384 31.8609 26.0511V21.9434C31.8609 21.5658 31.5548 21.2598 31.1773 21.2598H28.1222C26.7099 21.2598 25.5609 22.4087 25.5609 23.8211V26.0511C25.5609 26.738 25.7826 27.3738 26.1573 27.8921C25.69 27.9679 25.2404 28.1176 24.8211 28.3367C23.8713 26.9195 22.3152 25.9421 20.5271 25.7772C20.5201 25.7752 20.513 25.7738 20.506 25.7721C21.1457 25.0577 21.5357 24.1151 21.5357 23.0829V17.5C21.5357 17.1225 21.2296 16.8164 20.8521 16.8164H16.6999C14.9157 16.8164 13.4643 18.2679 13.4643 20.052V23.0828C13.4643 24.1151 13.8543 25.0576 14.494 25.772C14.487 25.7737 14.4799 25.7752 14.4729 25.7772C12.6846 25.942 11.1284 26.9196 10.1787 28.337C9.75926 28.1179 9.30959 27.9681 8.84249 27.8923C9.21724 27.374 9.43906 26.7381 9.43906 26.0511V21.9434C9.43906 21.5658 9.13295 21.2598 8.75547 21.2598H5.70035C4.28805 21.2598 3.13906 22.4087 3.13906 23.8211V26.0511C3.13906 26.7385 3.36103 27.3746 3.73618 27.8931C1.62025 28.2389 0 30.0791 0 32.2913V34.3164C0 34.694 0.306113 35 0.683594 35H34.3164C34.6939 35 35 34.694 35 34.3164V32.2913C35 30.0791 33.3797 28.2389 31.2638 27.8931ZM4.50625 23.8211C4.50625 23.1626 5.04191 22.627 5.70035 22.627H8.07188V23.4595C8.07188 23.8677 7.73979 24.1998 7.33161 24.1998H4.50625V23.8211ZM4.50625 25.567H7.33161C7.59206 25.567 7.84144 25.5192 8.07188 25.4324V26.0511C8.07188 27.0341 7.27214 27.8339 6.28906 27.8339C5.30599 27.8339 4.50625 27.0341 4.50625 26.0511V25.567ZM6.72978 29.2011L6.28906 29.6418L5.84835 29.2011H6.72978ZM9.19789 31.564V33.6328H1.36719V32.2913C1.36719 30.758 2.48985 29.4826 3.95616 29.2424L5.80569 31.0919C5.93394 31.2201 6.10777 31.2921 6.28906 31.2921C6.47035 31.2921 6.64419 31.2201 6.77243 31.0919L8.62251 29.2417C8.94927 29.2949 9.26352 29.4003 9.55637 29.5544C9.32477 30.1809 9.19789 30.8579 9.19789 31.564ZM17.5001 25.7515C16.0286 25.7515 14.8315 24.5543 14.8315 23.0829V22.1794H18.917C19.37 22.1794 19.7965 22.0637 20.1686 21.8604V23.0829C20.1686 24.5543 18.9715 25.7515 17.5001 25.7515ZM18.6916 27.1186L17.5 28.3102L16.3084 27.1186H18.6916ZM14.8314 20.052C14.8314 19.0217 15.6696 18.1836 16.6999 18.1836H20.1685V19.5606C20.1685 20.2508 19.607 20.8123 18.9169 20.8123H14.8314V20.052ZM24.4349 33.6328H10.5651V32.2656H15.0163C15.3938 32.2656 15.6999 31.9596 15.6999 31.582C15.6999 31.2045 15.3938 30.8984 15.0163 30.8984H10.6151C10.9081 28.9556 12.4633 27.422 14.4158 27.1595L17.0166 29.7603C17.1501 29.8938 17.3251 29.9605 17.5 29.9605C17.6749 29.9605 17.8499 29.8938 17.9834 29.7603L20.5842 27.1595C22.755 27.4513 24.4349 29.3146 24.4349 31.564V33.6328ZM26.9281 23.8211C26.9281 23.1626 27.4638 22.627 28.1222 22.627H30.4937V23.4595C30.4937 23.8677 30.1617 24.1998 29.7535 24.1998H26.9281V23.8211ZM26.9281 25.567H29.7535C30.0139 25.567 30.2633 25.5192 30.4937 25.4324V26.0511C30.4937 27.0341 29.694 27.8339 28.7109 27.8339C27.7279 27.8339 26.9281 27.0341 26.9281 26.0511V25.567ZM29.1516 29.2011L28.7109 29.6418L28.2702 29.2011H29.1516ZM25.802 33.6328V31.564C25.802 30.8578 25.6752 30.1809 25.4435 29.5542C25.7362 29.4 26.0504 29.2947 26.3772 29.2416L28.2275 31.0919C28.3557 31.2201 28.5296 31.2921 28.7109 31.2921C28.8922 31.2921 29.066 31.2201 29.1942 31.0919L31.0438 29.2424C32.5101 29.4826 33.6327 30.758 33.6327 32.2913V33.6328H25.802Z" fill="#00B2FF"/> <path d="M20.869 4.46649C20.602 4.19954 20.1693 4.19954 19.9022 4.46649L16.5478 7.82095L15.0977 6.37084C14.8307 6.10383 14.398 6.10383 14.131 6.37077C13.864 6.63772 13.864 7.07057 14.131 7.33758L16.0645 9.27106C16.1927 9.39923 16.3665 9.47128 16.5478 9.47128C16.7291 9.47128 16.903 9.39923 17.0312 9.27106L20.869 5.43322C21.136 5.16628 21.136 4.73343 20.869 4.46649Z" fill="#00B2FF"/> <path d="M20.2951 0.592811C19.9504 0.43907 19.5461 0.593904 19.3923 0.938709C19.2385 1.28351 19.3934 1.68772 19.7382 1.84146C21.7206 2.72555 23.0015 4.69888 23.0015 6.86875C23.0015 9.90226 20.5335 12.3702 17.5 12.3702C14.4665 12.3702 11.9985 9.90226 11.9985 6.86875C11.9985 4.7101 13.2702 2.74087 15.2383 1.85199C15.5823 1.69661 15.7353 1.29165 15.5799 0.947596C15.4245 0.603475 15.0193 0.450555 14.6755 0.605936C12.2188 1.71555 10.6314 4.17382 10.6314 6.86868C10.6313 10.6561 13.7126 13.7374 17.5 13.7374C21.2874 13.7374 24.3687 10.6561 24.3687 6.86875C24.3687 4.15987 22.7697 1.6964 20.2951 0.592811Z" fill="#00B2FF"/> <path d="M17.5245 0H17.5C17.1225 0 16.8164 0.306045 16.8164 0.683594C16.8164 1.06114 17.1225 1.36719 17.5 1.36719H17.518C17.5191 1.36719 17.5202 1.36719 17.5213 1.36719C17.8974 1.36719 18.2031 1.06326 18.2049 0.686807C18.2066 0.309258 17.902 0.00177734 17.5245 0Z" fill="#00B2FF"/> <path d="M17.9832 31.0987C17.8562 30.9716 17.6798 30.8984 17.5 30.8984C17.3202 30.8984 17.1438 30.9716 17.0167 31.0987C16.8896 31.2259 16.8164 31.4022 16.8164 31.582C16.8164 31.7618 16.8895 31.9382 17.0167 32.0653C17.1439 32.1925 17.3202 32.2656 17.5 32.2656C17.6798 32.2656 17.8562 32.1925 17.9832 32.0653C18.1104 31.9382 18.1836 31.7618 18.1836 31.582C18.1836 31.4022 18.1104 31.2259 17.9832 31.0987Z" fill="#00B2FF"/> </symbol>
<symbol id="logo-img" viewBox="0 0 52 52"> <path d="M32.0667 13.8664C33.1951 13.8664 34.1484 14.5936 34.5072 15.5997H43.4928C43.8516 14.5936 44.8049 13.8664 45.9333 13.8664C47.3668 13.8664 48.5333 15.033 48.5333 16.4664C48.5333 17.8998 47.3668 19.0664 45.9333 19.0664C44.8049 19.0664 43.8516 18.3392 43.4928 17.333H34.5063C34.1475 18.3392 33.1942 19.0664 32.0658 19.0664C30.6323 19.0664 29.4658 17.8998 29.4658 16.4664C29.4658 15.033 30.6332 13.8664 32.0667 13.8664ZM45.9333 17.333C46.4109 17.333 46.8 16.9448 46.8 16.4664C46.8 15.988 46.4109 15.5997 45.9333 15.5997C45.4558 15.5997 45.0667 15.988 45.0667 16.4664C45.0667 16.9448 45.4558 17.333 45.9333 17.333ZM32.0667 17.333C32.5442 17.333 32.9333 16.9448 32.9333 16.4664C32.9333 15.988 32.5442 15.5997 32.0667 15.5997C31.5891 15.5997 31.2 15.988 31.2 16.4664C31.2 16.9448 31.5891 17.333 32.0667 17.333Z" fill="#00B2FF"/> <path d="M25.1333 19.2258V13.8664C25.1333 13.6359 25.2243 13.4158 25.3873 13.2537L28.8539 9.7871C29.016 9.62417 29.237 9.53317 29.4667 9.53317H32.2261C32.5849 8.52699 33.5383 7.79987 34.6667 7.79987C36.1001 7.79987 37.2667 8.96638 37.2667 10.3998C37.2667 11.8333 36.1001 12.9998 34.6667 12.9998C33.5383 12.9998 32.5849 12.2727 32.2261 11.2665H29.8255L26.8667 14.2252V19.2258C27.8729 19.5846 28.6 20.5379 28.6 21.6663C28.6 23.0997 27.4335 24.2663 26 24.2663C24.5665 24.2663 23.4 23.0997 23.4 21.6663C23.4 20.5379 24.1271 19.5846 25.1333 19.2258ZM34.6667 11.2665C35.1442 11.2665 35.5333 10.8782 35.5333 10.3998C35.5333 9.92143 35.1442 9.53317 34.6667 9.53317C34.1891 9.53317 33.8 9.92143 33.8 10.3998C33.8 10.8782 34.1891 11.2665 34.6667 11.2665ZM26 22.533C26.4775 22.533 26.8667 22.1447 26.8667 21.6663C26.8667 21.1879 26.4775 20.7997 26 20.7997C25.5225 20.7997 25.1333 21.1879 25.1333 21.6663C25.1333 22.1447 25.5225 22.533 26 22.533Z" fill="#00B2FF"/> <path d="M9.53334 22.533C9.93374 22.533 10.3081 22.6309 10.647 22.7938L12.1333 21.3075V12.9998C12.1333 12.7693 12.2243 12.5491 12.3873 12.3871L21.0609 3.7136C20.8979 3.37474 20.8 3.00035 20.8 2.59996C20.8 1.16651 21.9665 0 23.4 0C24.8335 0 26 1.16651 26 2.59996C26 4.0334 24.8335 5.19991 23.4 5.19991C22.9996 5.19991 22.6252 5.10198 22.2863 4.93905L13.8667 13.3586V21.6663C13.8667 21.8968 13.7757 22.117 13.6127 22.279L11.8725 24.0193C12.0354 24.3581 12.1333 24.7325 12.1333 25.1329C12.1333 26.5664 10.9668 27.7329 9.53334 27.7329C8.09987 27.7329 6.93334 26.5664 6.93334 25.1329C6.93334 23.6995 8.09987 22.533 9.53334 22.533ZM23.4 3.46661C23.8775 3.46661 24.2667 3.07835 24.2667 2.59996C24.2667 2.12156 23.8775 1.7333 23.4 1.7333C22.9225 1.7333 22.5333 2.12156 22.5333 2.59996C22.5333 3.07835 22.9225 3.46661 23.4 3.46661ZM9.53334 25.9996C10.0109 25.9996 10.4 25.6113 10.4 25.1329C10.4 24.6545 10.0109 24.2663 9.53334 24.2663C9.05581 24.2663 8.66667 24.6545 8.66667 25.1329C8.66667 25.6113 9.05581 25.9996 9.53334 25.9996Z" fill="#00B2FF"/> <path d="M1.73334 12.2926V8.66652C1.73334 8.43599 1.82434 8.21586 1.98728 8.0538L8.05394 1.98723C8.21601 1.8243 8.43701 1.7333 8.66668 1.7333H13.1595C13.5183 0.727121 14.4716 0 15.6 0C17.0335 0 18.2 1.16651 18.2 2.59996C18.2 4.0334 17.0335 5.19991 15.6 5.19991C14.4716 5.19991 13.5183 4.47279 13.1595 3.46661H9.02548L3.46668 9.02532V12.2926C4.47288 12.6514 5.20001 13.6047 5.20001 14.7331C5.20001 16.1665 4.03348 17.333 2.60001 17.333C1.16654 17.333 9.53674e-06 16.1665 9.53674e-06 14.7331C9.53674e-06 13.6047 0.727144 12.6514 1.73334 12.2926ZM15.6 3.46661C16.0775 3.46661 16.4667 3.07835 16.4667 2.59996C16.4667 2.12156 16.0775 1.7333 15.6 1.7333C15.1225 1.7333 14.7333 2.12156 14.7333 2.59996C14.7333 3.07835 15.1225 3.46661 15.6 3.46661ZM2.60001 15.5997C3.07754 15.5997 3.46668 15.2115 3.46668 14.7331C3.46668 14.2547 3.07754 13.8664 2.60001 13.8664C2.12248 13.8664 1.73334 14.2547 1.73334 14.7331C1.73334 15.2115 2.12248 15.5997 2.60001 15.5997Z" fill="#00B2FF"/> <path d="M13.8658 46.9595V34.5066C12.8605 34.1478 12.1333 33.1945 12.1333 32.0661C12.1333 30.6327 13.2999 29.4662 14.7333 29.4662C15.8617 29.4662 16.8151 30.1933 17.1739 31.1995H26.1595C26.5183 30.1933 27.4716 29.4662 28.6 29.4662C29.7284 29.4662 30.6817 30.1933 31.0405 31.1995H36.0412L39.2609 27.9799C39.0979 27.641 39 27.2666 39 26.8662C39 25.4328 40.1665 24.2663 41.6 24.2663C43.0335 24.2663 44.2 25.4328 44.2 26.8662C44.2 28.2997 43.0335 29.4662 41.6 29.4662C41.1996 29.4662 40.8252 29.3682 40.4863 29.2053L37.0127 32.6789C36.8507 32.8418 36.6297 32.9328 36.4 32.9328H31.0405C30.6817 33.939 29.7284 34.6661 28.6 34.6661C27.4716 34.6661 26.5183 33.939 26.1595 32.9328H17.173C16.9113 33.6668 16.3332 34.2449 15.5991 34.5066V46.9595C16.6053 47.3183 17.3325 48.2717 17.3325 49.4C17.3325 50.8335 16.1659 52 14.7325 52C13.299 52 12.1325 50.8335 12.1325 49.4C12.1325 48.2717 12.8596 47.3183 13.8658 46.9595ZM41.6 27.7329C42.0775 27.7329 42.4667 27.3446 42.4667 26.8662C42.4667 26.3878 42.0775 25.9996 41.6 25.9996C41.1225 25.9996 40.7333 26.3878 40.7333 26.8662C40.7333 27.3446 41.1225 27.7329 41.6 27.7329ZM28.6 32.9328C29.0775 32.9328 29.4667 32.5445 29.4667 32.0661C29.4667 31.5877 29.0775 31.1995 28.6 31.1995C28.1225 31.1995 27.7333 31.5877 27.7333 32.0661C27.7333 32.5445 28.1225 32.9328 28.6 32.9328ZM14.7333 50.2658C15.2109 50.2658 15.6 49.8776 15.6 49.3992C15.6 48.9208 15.2109 48.5325 14.7333 48.5325C14.2558 48.5325 13.8667 48.9208 13.8667 49.3992C13.8667 49.8776 14.2558 50.2658 14.7333 50.2658ZM14.7333 32.9328C15.2109 32.9328 15.6 32.5445 15.6 32.0661C15.6 31.5877 15.2109 31.1995 14.7333 31.1995C14.2558 31.1995 13.8667 31.5877 13.8667 32.0661C13.8667 32.5445 14.2558 32.9328 14.7333 32.9328Z" fill="#00B2FF"/> <path d="M18.2 17.4925V14.7331C18.2 14.5026 18.291 14.2824 18.4539 14.1204L28.8609 3.7136C28.6979 3.37474 28.6 3.00035 28.6 2.59996C28.6 1.16651 29.7665 0 31.2 0C32.3284 0 33.2817 0.727121 33.6405 1.7333H37.2667C37.7451 1.7333 38.1333 2.1207 38.1333 2.59996V4.84112L41.353 8.06073C41.6919 7.8978 42.0663 7.79987 42.4667 7.79987C43.9001 7.79987 45.0667 8.96638 45.0667 10.3998C45.0667 11.8333 43.9001 12.9998 42.4667 12.9998C41.0332 12.9998 39.8667 11.8333 39.8667 10.3998C39.8667 9.99943 39.9646 9.62504 40.1275 9.28618L36.6539 5.81264C36.491 5.65057 36.4 5.43044 36.4 5.19991V3.46661H33.6405C33.2817 4.47279 32.3284 5.19991 31.2 5.19991C30.7996 5.19991 30.4252 5.10198 30.0863 4.93905L19.9333 15.0919V17.4925C20.9395 17.8513 21.6667 18.8046 21.6667 19.933C21.6667 21.3664 20.5001 22.533 19.0667 22.533C17.6332 22.533 16.4667 21.3664 16.4667 19.933C16.4667 18.8046 17.1938 17.8513 18.2 17.4925ZM42.4667 11.2665C42.9442 11.2665 43.3333 10.8782 43.3333 10.3998C43.3333 9.92143 42.9442 9.53317 42.4667 9.53317C41.9891 9.53317 41.6 9.92143 41.6 10.3998C41.6 10.8782 41.9891 11.2665 42.4667 11.2665ZM31.2 3.46661C31.6775 3.46661 32.0667 3.07835 32.0667 2.59996C32.0667 2.12156 31.6775 1.7333 31.2 1.7333C30.7225 1.7333 30.3333 2.12156 30.3333 2.59996C30.3333 3.07835 30.7225 3.46661 31.2 3.46661ZM19.0667 20.7997C19.5442 20.7997 19.9333 20.4114 19.9333 19.933C19.9333 19.4546 19.5442 19.0663 19.0667 19.0663C18.5891 19.0663 18.2 19.4546 18.2 19.933C18.2 20.4114 18.5891 20.7997 19.0667 20.7997Z" fill="#00B2FF"/> <path d="M20.8 24.2663C21.9284 24.2663 22.8817 24.9934 23.2405 25.9996H33.4412L38.3873 21.0536C38.5493 20.8906 38.7703 20.7997 39 20.7997H48.1745L50.2667 18.7076V11.6253L43.5803 4.93905C43.2415 5.10198 42.8671 5.19991 42.4667 5.19991C41.0332 5.19991 39.8667 4.0334 39.8667 2.59996C39.8667 1.16651 41.0332 0 42.4667 0C43.9001 0 45.0667 1.16651 45.0667 2.59996C45.0667 3.00035 44.9687 3.37474 44.8058 3.7136L51.7461 10.6538C51.909 10.8158 52 11.0359 52 11.2665V19.0663C52 19.2969 51.909 19.517 51.7461 19.6791L49.1461 22.279C48.984 22.442 48.763 22.533 48.5333 22.533H39.3588L34.4127 27.4789C34.2507 27.6419 34.0297 27.7329 33.8 27.7329H23.2405C22.8817 28.7391 21.9284 29.4662 20.8 29.4662C19.3665 29.4662 18.2 28.2997 18.2 26.8662C18.2 25.4328 19.3665 24.2663 20.8 24.2663ZM42.4667 1.7333C41.9891 1.7333 41.6 2.12156 41.6 2.59996C41.6 3.07835 41.9891 3.46661 42.4667 3.46661C42.9442 3.46661 43.3333 3.07835 43.3333 2.59996C43.3333 2.12156 42.9442 1.7333 42.4667 1.7333ZM20.8 27.7329C21.2775 27.7329 21.6667 27.3446 21.6667 26.8662C21.6667 26.3878 21.2775 25.9996 20.8 25.9996C20.3225 25.9996 19.9333 26.3878 19.9333 26.8662C19.9333 27.3446 20.3225 27.7329 20.8 27.7329Z" fill="#00B2FF"/> <path d="M2.6 20.7997C3.0004 20.7997 3.3748 20.8976 3.71367 21.0605L6.93333 17.8409V12.8403C5.92713 12.4815 5.2 11.5282 5.2 10.3998C5.2 8.96638 6.36653 7.79987 7.8 7.79987C9.23347 7.79987 10.4 8.96638 10.4 10.3998C10.4 11.5282 9.67287 12.4815 8.66667 12.8403V18.1997C8.66667 18.4302 8.57567 18.6504 8.41273 18.8124L4.93913 22.286C5.10207 22.6248 5.2 22.9992 5.2 23.3996C5.2 24.528 4.47287 25.4813 3.46667 25.8401V26.5074L10.1461 33.1867C10.309 33.3488 10.4 33.5689 10.4 33.7994V34.8256C11.4062 35.1843 12.1333 36.1377 12.1333 37.266C12.1333 38.3944 11.4062 39.3477 10.4 39.7065V41.7596C11.4062 42.1184 12.1333 43.0718 12.1333 44.2001C12.1333 45.6336 10.9668 46.8001 9.53333 46.8001C8.09987 46.8001 6.93333 45.6336 6.93333 44.2001C6.93333 43.0718 7.66047 42.1184 8.66667 41.7596V39.7065C7.66047 39.3477 6.93333 38.3944 6.93333 37.266C6.93333 36.1377 7.66047 35.1843 8.66667 34.8256V34.1582L1.98727 27.4789C1.82433 27.3169 1.73333 27.0967 1.73333 26.8662V25.8401C0.727133 25.4813 0 24.528 0 23.3996C0 21.9662 1.16653 20.7997 2.6 20.7997ZM7.8 11.2665C8.27753 11.2665 8.66667 10.8782 8.66667 10.3998C8.66667 9.92143 8.27753 9.53317 7.8 9.53317C7.32247 9.53317 6.93333 9.92143 6.93333 10.3998C6.93333 10.8782 7.32247 11.2665 7.8 11.2665ZM9.53333 45.0659C10.0109 45.0659 10.4 44.6777 10.4 44.1993C10.4 43.7209 10.0109 43.3326 9.53333 43.3326C9.0558 43.3326 8.66667 43.7209 8.66667 44.1993C8.66667 44.6777 9.0558 45.0659 9.53333 45.0659ZM9.53333 38.1327C10.0109 38.1327 10.4 37.7444 10.4 37.266C10.4 36.7877 10.0109 36.3994 9.53333 36.3994C9.0558 36.3994 8.66667 36.7877 8.66667 37.266C8.66667 37.7444 9.0558 38.1327 9.53333 38.1327ZM2.6 24.2663C3.07753 24.2663 3.46667 23.878 3.46667 23.3996C3.46667 22.9212 3.07753 22.533 2.6 22.533C2.12247 22.533 1.73333 22.9212 1.73333 23.3996C1.73333 23.878 2.12247 24.2663 2.6 24.2663Z" fill="#00B2FF"/> </symbol>
<symbol id="logo-text" viewBox="0 0 134 45"> <path d="M8.93555 18.3369C8.93555 17.6126 8.74837 17.0674 8.37402 16.7012C8.00781 16.3268 7.33643 15.9403 6.35986 15.5415C4.57764 14.866 3.2959 14.0767 2.51465 13.1733C1.7334 12.2619 1.34277 11.1877 1.34277 9.95068C1.34277 8.45329 1.87174 7.25293 2.92969 6.34961C3.99577 5.43815 5.34668 4.98242 6.98242 4.98242C8.07292 4.98242 9.04541 5.21436 9.8999 5.67822C10.7544 6.13395 11.4095 6.78092 11.8652 7.61914C12.3291 8.45736 12.561 9.40951 12.561 10.4756H8.98438C8.98438 9.64551 8.80534 9.01481 8.44727 8.5835C8.09733 8.14404 7.5887 7.92432 6.92139 7.92432C6.29476 7.92432 5.80648 8.11149 5.45654 8.48584C5.10661 8.85205 4.93164 9.34847 4.93164 9.9751C4.93164 10.4634 5.12695 10.9069 5.51758 11.3057C5.9082 11.6963 6.59993 12.1032 7.59277 12.5264C9.32617 13.153 10.5835 13.922 11.3647 14.8335C12.1541 15.745 12.5488 16.9046 12.5488 18.3125C12.5488 19.8587 12.0565 21.0672 11.0718 21.938C10.0871 22.8088 8.74837 23.2441 7.05566 23.2441C5.9082 23.2441 4.86247 23.0081 3.91846 22.5361C2.97445 22.0641 2.23389 21.3887 1.69678 20.5098C1.16781 19.6309 0.90332 18.5933 0.90332 17.397H4.50439C4.50439 18.4224 4.70378 19.167 5.10254 19.6309C5.5013 20.0947 6.15234 20.3267 7.05566 20.3267C8.30892 20.3267 8.93555 19.6634 8.93555 18.3369ZM18.0054 9.79199L18.103 11.0127C18.8761 10.0361 19.8975 9.54785 21.167 9.54785C22.4854 9.54785 23.4172 10.1419 23.9624 11.3301C24.7192 10.1419 25.7975 9.54785 27.1973 9.54785C29.5085 9.54785 30.6925 11.147 30.7495 14.3452V23H27.2949V14.5649C27.2949 13.8 27.1891 13.2547 26.9775 12.9292C26.766 12.6037 26.4079 12.4409 25.9033 12.4409C25.2604 12.4409 24.7803 12.8356 24.4629 13.625L24.4873 14.04V23H21.0327V14.5894C21.0327 13.8325 20.931 13.2873 20.7275 12.9536C20.5241 12.6118 20.1619 12.4409 19.6411 12.4409C19.047 12.4409 18.575 12.7624 18.2251 13.4053V23H14.7705V9.79199H18.0054ZM39.5874 23C39.4897 22.7965 39.3921 22.4548 39.2944 21.9746C38.6759 22.821 37.8377 23.2441 36.7798 23.2441C35.673 23.2441 34.7534 22.8779 34.021 22.1455C33.2967 21.4131 32.9346 20.465 32.9346 19.3013C32.9346 17.9178 33.374 16.8477 34.2529 16.0908C35.14 15.334 36.4136 14.9474 38.0737 14.9312H39.1235V13.8691C39.1235 13.2751 39.0218 12.856 38.8184 12.6118C38.6149 12.3677 38.3179 12.2456 37.9272 12.2456C37.0646 12.2456 36.6333 12.7502 36.6333 13.7593H33.1787C33.1787 12.5386 33.6344 11.5335 34.5459 10.7441C35.4655 9.94661 36.6252 9.54785 38.0249 9.54785C39.4735 9.54785 40.5924 9.92627 41.3818 10.6831C42.1794 11.4318 42.5781 12.506 42.5781 13.9058V20.1191C42.5944 21.2585 42.7572 22.1496 43.0664 22.7925V23H39.5874ZM37.5488 20.5342C37.9313 20.5342 38.2568 20.4569 38.5254 20.3022C38.7939 20.1476 38.9933 19.9645 39.1235 19.7529V17.0063H38.2935C37.7075 17.0063 37.2437 17.1935 36.9019 17.5679C36.5682 17.9422 36.4014 18.4427 36.4014 19.0693C36.4014 20.0459 36.7839 20.5342 37.5488 20.5342ZM51.5991 13.1245L50.4517 13.0269C49.5076 13.0269 48.8688 13.4419 48.5352 14.272V23H45.0684V9.79199H48.3276L48.4253 11.2202C48.9705 10.1053 49.7233 9.54785 50.6836 9.54785C51.0742 9.54785 51.3916 9.60075 51.6357 9.70654L51.5991 13.1245ZM58.0078 6.54492V9.79199H59.7778V12.3921H58.0078V18.9473C58.0078 19.4681 58.077 19.8262 58.2153 20.0215C58.3618 20.2168 58.6385 20.3145 59.0454 20.3145C59.3791 20.3145 59.6517 20.286 59.8633 20.229L59.8389 22.9146C59.2529 23.1343 58.6182 23.2441 57.9346 23.2441C55.7048 23.2441 54.5776 21.9665 54.5532 19.4111V12.3921H53.0273V9.79199H54.5532V6.54492H58.0078ZM67.6147 23V5.22656H72.3145C74.3896 5.22656 76.0417 5.88574 77.2705 7.2041C78.5075 8.52246 79.1382 10.3291 79.1626 12.624V15.5049C79.1626 17.8405 78.5441 19.6756 77.3071 21.0103C76.0783 22.3368 74.3815 23 72.2168 23H67.6147ZM71.2036 8.21729V20.0215H72.2778C73.4741 20.0215 74.3164 19.7082 74.8047 19.0815C75.293 18.4468 75.5493 17.3563 75.5737 15.8101V12.7217C75.5737 11.0615 75.3418 9.90592 74.8779 9.25488C74.4141 8.5957 73.6247 8.24984 72.5098 8.21729H71.2036ZM86.9141 23.2441C85.14 23.2441 83.7565 22.7152 82.7637 21.6572C81.7708 20.5993 81.2744 19.0856 81.2744 17.1162V16.0664C81.2744 13.9831 81.7301 12.3758 82.6416 11.2446C83.5531 10.1134 84.8592 9.54785 86.5601 9.54785C88.2202 9.54785 89.4694 10.0809 90.3076 11.147C91.1458 12.2049 91.5731 13.7756 91.5894 15.8589V17.5557H84.7168C84.7656 18.5322 84.9813 19.2484 85.3638 19.7041C85.7463 20.1517 86.3363 20.3755 87.1338 20.3755C88.2894 20.3755 89.2537 19.9808 90.0269 19.1914L91.3818 21.2788C90.9587 21.8647 90.3442 22.3408 89.5386 22.707C88.7329 23.0651 87.8581 23.2441 86.9141 23.2441ZM84.7412 15.1387H88.1958V14.8213C88.1795 14.0319 88.0493 13.4338 87.8052 13.0269C87.561 12.62 87.1379 12.4165 86.5356 12.4165C85.9334 12.4165 85.494 12.6322 85.2173 13.0635C84.9487 13.4948 84.79 14.1865 84.7412 15.1387ZM97.7051 18.1172L99.3774 9.79199H102.979L99.353 23H96.0571L92.4194 9.79199H96.0327L97.7051 18.1172ZM108.228 23H104.761V9.79199H108.228V23ZM104.602 6.37402C104.602 5.83691 104.773 5.39746 105.115 5.05566C105.457 4.71387 105.912 4.54297 106.482 4.54297C107.052 4.54297 107.507 4.71387 107.849 5.05566C108.191 5.39746 108.362 5.83691 108.362 6.37402C108.362 6.90299 108.191 7.34245 107.849 7.69238C107.515 8.04232 107.06 8.21729 106.482 8.21729C105.904 8.21729 105.444 8.04232 105.103 7.69238C104.769 7.34245 104.602 6.90299 104.602 6.37402ZM115.674 20.3755C116.675 20.3755 117.183 19.7244 117.2 18.4224H120.447C120.431 19.8628 119.987 21.0265 119.116 21.9136C118.245 22.8006 117.122 23.2441 115.747 23.2441C114.046 23.2441 112.748 22.7152 111.853 21.6572C110.958 20.5993 110.502 19.0409 110.486 16.9819V15.9321C110.486 13.8569 110.925 12.2741 111.804 11.1836C112.691 10.0931 113.997 9.54785 115.723 9.54785C117.179 9.54785 118.327 9.99951 119.165 10.9028C120.003 11.798 120.431 13.0716 120.447 14.7236H117.2C117.192 13.9831 117.069 13.4134 116.833 13.0146C116.597 12.6159 116.207 12.4165 115.662 12.4165C115.059 12.4165 114.628 12.6322 114.368 13.0635C114.107 13.4867 113.969 14.3127 113.953 15.5415V16.8843C113.953 17.9585 114.006 18.7113 114.111 19.1426C114.217 19.5658 114.392 19.8791 114.636 20.0825C114.88 20.2778 115.226 20.3755 115.674 20.3755ZM127.734 23.2441C125.96 23.2441 124.577 22.7152 123.584 21.6572C122.591 20.5993 122.095 19.0856 122.095 17.1162V16.0664C122.095 13.9831 122.55 12.3758 123.462 11.2446C124.373 10.1134 125.68 9.54785 127.38 9.54785C129.041 9.54785 130.29 10.0809 131.128 11.147C131.966 12.2049 132.393 13.7756 132.41 15.8589V17.5557H125.537C125.586 18.5322 125.802 19.2484 126.184 19.7041C126.567 20.1517 127.157 20.3755 127.954 20.3755C129.11 20.3755 130.074 19.9808 130.847 19.1914L132.202 21.2788C131.779 21.8647 131.165 22.3408 130.359 22.707C129.553 23.0651 128.678 23.2441 127.734 23.2441ZM125.562 15.1387H129.016V14.8213C129 14.0319 128.87 13.4338 128.625 13.0269C128.381 12.62 127.958 12.4165 127.356 12.4165C126.754 12.4165 126.314 12.6322 126.038 13.0635C125.769 13.4948 125.61 14.1865 125.562 15.1387Z" fill="white"/> <path d="M2.94727 38.9609L4.23633 34.6602H5.75391L3.23438 41.9609C2.84766 43.0273 2.19141 43.5605 1.26562 43.5605C1.05859 43.5605 0.830078 43.5254 0.580078 43.4551V42.3535L0.849609 42.3711C1.20898 42.3711 1.47852 42.3047 1.6582 42.1719C1.8418 42.043 1.98633 41.8242 2.0918 41.5156L2.29688 40.9707L0.0703125 34.6602H1.60547L2.94727 38.9609ZM10.3418 39.248L12.2168 34.6602H13.998V41H12.5742V36.8047L10.8281 41H9.86133L8.10938 36.7812V41H6.68555V34.6602H8.47852L10.3418 39.248ZM20.9707 41H19.5469V38.4395H17.0801V41H15.6562V34.6602H17.0801V37.3027H19.5469V34.6602H20.9707V41ZM24.0234 36.6758H25.418C25.9375 36.6758 26.3906 36.7656 26.7773 36.9453C27.1641 37.125 27.457 37.377 27.6562 37.7012C27.8594 38.0254 27.9609 38.4023 27.9609 38.832C27.9609 39.4844 27.7305 40.0078 27.2695 40.4023C26.8086 40.7969 26.1953 40.9961 25.4297 41H22.5996V34.6602H24.0234V36.6758ZM30.4395 41H29.0156V34.6602H30.4395V41ZM24.0234 37.8184V39.8633H25.4121C25.7598 39.8633 26.0332 39.7773 26.2324 39.6055C26.4355 39.4297 26.5371 39.1816 26.5371 38.8613C26.5371 38.541 26.4375 38.2891 26.2383 38.1055C26.043 37.918 25.7773 37.8223 25.4414 37.8184H24.0234ZM34.9395 41.1172C34.0371 41.1172 33.3047 40.834 32.7422 40.2676C32.1836 39.6973 31.9043 38.9395 31.9043 37.9941V37.8184C31.9043 37.1855 32.0254 36.6211 32.2676 36.125C32.5137 35.625 32.8574 35.2363 33.2988 34.959C33.7402 34.6816 34.2324 34.543 34.7754 34.543C35.6387 34.543 36.3047 34.8184 36.7734 35.3691C37.2461 35.9199 37.4824 36.6992 37.4824 37.707V38.2812H33.3398C33.3828 38.8047 33.5566 39.2188 33.8613 39.5234C34.1699 39.8281 34.5566 39.9805 35.0215 39.9805C35.6738 39.9805 36.2051 39.7168 36.6152 39.1895L37.3828 39.9219C37.1289 40.3008 36.7891 40.5957 36.3633 40.8066C35.9414 41.0137 35.4668 41.1172 34.9395 41.1172ZM34.7695 35.6855C34.3789 35.6855 34.0625 35.8223 33.8203 36.0957C33.582 36.3691 33.4297 36.75 33.3633 37.2383H36.0762V37.1328C36.0449 36.6562 35.918 36.2969 35.6953 36.0547C35.4727 35.8086 35.1641 35.6855 34.7695 35.6855ZM46.5703 35.791H44.5137V41H43.0898V35.791H41.0566V34.6602H46.5703V35.791ZM49.9395 41.1172C49.0371 41.1172 48.3047 40.834 47.7422 40.2676C47.1836 39.6973 46.9043 38.9395 46.9043 37.9941V37.8184C46.9043 37.1855 47.0254 36.6211 47.2676 36.125C47.5137 35.625 47.8574 35.2363 48.2988 34.959C48.7402 34.6816 49.2324 34.543 49.7754 34.543C50.6387 34.543 51.3047 34.8184 51.7734 35.3691C52.2461 35.9199 52.4824 36.6992 52.4824 37.707V38.2812H48.3398C48.3828 38.8047 48.5566 39.2188 48.8613 39.5234C49.1699 39.8281 49.5566 39.9805 50.0215 39.9805C50.6738 39.9805 51.2051 39.7168 51.6152 39.1895L52.3828 39.9219C52.1289 40.3008 51.7891 40.5957 51.3633 40.8066C50.9414 41.0137 50.4668 41.1172 49.9395 41.1172ZM49.7695 35.6855C49.3789 35.6855 49.0625 35.8223 48.8203 36.0957C48.582 36.3691 48.4297 36.75 48.3633 37.2383H51.0762V37.1328C51.0449 36.6562 50.918 36.2969 50.6953 36.0547C50.4727 35.8086 50.1641 35.6855 49.7695 35.6855ZM55.8691 36.7461L57.0762 34.6602H58.6582L56.7188 37.7832L58.7227 41H57.1523L55.8867 38.832L54.627 41H53.0449L55.0488 37.7832L53.1152 34.6602H54.6855L55.8691 36.7461ZM64.998 41H63.5742V38.4395H61.1074V41H59.6836V34.6602H61.1074V37.3027H63.5742V34.6602H64.998V41ZM66.252 37.7715C66.252 37.1504 66.375 36.5918 66.6211 36.0957C66.8672 35.5957 67.2129 35.2129 67.6582 34.9473C68.1035 34.6777 68.6152 34.543 69.1934 34.543C70.0488 34.543 70.7422 34.8184 71.2734 35.3691C71.8086 35.9199 72.0977 36.6504 72.1406 37.5605L72.1465 37.8945C72.1465 38.5195 72.0254 39.0781 71.7832 39.5703C71.5449 40.0625 71.2012 40.4434 70.752 40.7129C70.3066 40.9824 69.791 41.1172 69.2051 41.1172C68.3105 41.1172 67.5938 40.8203 67.0547 40.2266C66.5195 39.6289 66.252 38.834 66.252 37.8418V37.7715ZM67.6758 37.8945C67.6758 38.5469 67.8105 39.0586 68.0801 39.4297C68.3496 39.7969 68.7246 39.9805 69.2051 39.9805C69.6855 39.9805 70.0586 39.793 70.3242 39.418C70.5938 39.043 70.7285 38.4941 70.7285 37.7715C70.7285 37.1309 70.5898 36.623 70.3125 36.248C70.0391 35.873 69.666 35.6855 69.1934 35.6855C68.7285 35.6855 68.3594 35.8711 68.0859 36.2422C67.8125 36.6094 67.6758 37.1602 67.6758 37.8945ZM78.6445 34.6602V41H77.2207V35.8086H75.4277L75.3105 38.0176C75.2363 39.0801 75.0312 39.8438 74.6953 40.3086C74.3633 40.7695 73.8535 41 73.166 41H72.7266L72.7207 39.8164L73.0137 39.7871C73.3262 39.7441 73.5527 39.5547 73.6934 39.2188C73.8379 38.8789 73.9297 38.2617 73.9688 37.3672L74.0859 34.6602H78.6445ZM79.8926 37.7715C79.8926 37.1504 80.0156 36.5918 80.2617 36.0957C80.5078 35.5957 80.8535 35.2129 81.2988 34.9473C81.7441 34.6777 82.2559 34.543 82.834 34.543C83.6895 34.543 84.3828 34.8184 84.9141 35.3691C85.4492 35.9199 85.7383 36.6504 85.7812 37.5605L85.7871 37.8945C85.7871 38.5195 85.666 39.0781 85.4238 39.5703C85.1855 40.0625 84.8418 40.4434 84.3926 40.7129C83.9473 40.9824 83.4316 41.1172 82.8457 41.1172C81.9512 41.1172 81.2344 40.8203 80.6953 40.2266C80.1602 39.6289 79.8926 38.834 79.8926 37.8418V37.7715ZM81.3164 37.8945C81.3164 38.5469 81.4512 39.0586 81.7207 39.4297C81.9902 39.7969 82.3652 39.9805 82.8457 39.9805C83.3262 39.9805 83.6992 39.793 83.9648 39.418C84.2344 39.043 84.3691 38.4941 84.3691 37.7715C84.3691 37.1309 84.2305 36.623 83.9531 36.248C83.6797 35.873 83.3066 35.6855 82.834 35.6855C82.3691 35.6855 82 35.8711 81.7266 36.2422C81.4531 36.6094 81.3164 37.1602 81.3164 37.8945ZM91.2129 35.8086H88.459V41H87.041V34.6602H91.2129V35.8086ZM95.9766 34.6602H97.3945V41H95.9766V36.7695L93.4922 41H92.0742V34.6602H93.4922V38.8906L95.9766 34.6602ZM102.867 34.6602H104.285V41H102.867V36.7695L100.383 41H98.9648V34.6602H100.383V38.8906L102.867 34.6602Z" fill="#788891"/> </symbol>
<symbol id="mail" viewBox="0 0 19 14"> <path d="M16.6805 0H2.3234C1.0418 0 0 1.0087 0 2.24959V11.7504C0 12.9913 1.0418 14 2.3234 14H16.6766C17.9582 14 19 12.9913 19 11.7504V2.2534C19.0039 1.01251 17.9621 0 16.6805 0ZM17.9425 11.7504C17.9425 12.4241 17.3764 12.9723 16.6805 12.9723H2.3234C1.62756 12.9723 1.06145 12.4241 1.06145 11.7504V2.2534C1.06145 1.57966 1.62756 1.03154 2.3234 1.03154H16.6766C17.3724 1.03154 17.9385 1.57966 17.9385 2.2534V11.7504H17.9425Z" fill="#00B2FF"/> <path d="M11.9826 6.882L16.6294 2.8472C16.8456 2.65688 16.8653 2.33333 16.6687 2.12017C16.4722 1.91082 16.138 1.89179 15.9179 2.08211L9.50984 7.6509L8.25968 6.56987C8.25575 6.56607 8.25182 6.56226 8.25182 6.55845C8.2243 6.53181 8.19678 6.50897 8.16533 6.48613L3.07823 2.0783C2.85807 1.88798 2.52391 1.90701 2.32735 2.12017C2.13078 2.33333 2.15044 2.65688 2.37059 2.8472L7.07243 6.91626L2.39025 11.1604C2.17796 11.3545 2.16616 11.6781 2.36666 11.8874C2.4728 11.994 2.61433 12.0511 2.75586 12.0511C2.88559 12.0511 3.01532 12.0054 3.11754 11.9141L7.87048 7.60903L9.15995 8.72431C9.26217 8.81185 9.38797 8.85372 9.51377 8.85372C9.63957 8.85372 9.7693 8.80805 9.86759 8.7205L11.1924 7.57096L15.9179 11.9179C16.0201 12.0131 16.1537 12.0587 16.2835 12.0587C16.425 12.0587 16.5626 12.0054 16.6687 11.8989C16.8692 11.6933 16.8614 11.366 16.6491 11.1718L11.9826 6.882Z" fill="#00B2FF"/> </symbol>
<symbol id="odnoklassniki" viewBox="0 0 27 26"> <path d="M13.8512 10.9569C14.8668 10.9569 15.6568 10.1212 15.638 9.21119C15.6568 8.3012 14.8857 7.44691 13.87 7.44691C12.892 7.44691 12.0833 8.22691 12.0833 9.19262C12.0833 10.1583 12.8732 10.9569 13.8512 10.9569Z" fill="#CDCDCD"/> <path d="M13.701 0C6.44113 0 0.5354 5.8314 0.5354 12.9999C0.5354 20.187 6.44113 25.9999 13.701 25.9999C20.9797 25.9999 26.8667 20.1685 26.8667 12.9999C26.8855 5.8314 20.9797 0 13.701 0ZM13.8891 4.9214C16.2589 4.9214 18.215 6.85282 18.1962 9.21138C18.1962 11.5885 16.2213 13.5014 13.8139 13.4642C11.4441 13.4271 9.54445 11.5142 9.54445 9.19281C9.54445 6.83425 11.4817 4.9214 13.8891 4.9214ZM18.7228 14.9499C18.7228 14.9871 18.704 15.0056 18.704 15.0428C18.6475 15.4142 18.4595 15.7114 18.1397 15.9156C17.9328 16.0456 17.7071 16.1756 17.4814 16.2871C16.9172 16.5656 16.3153 16.7885 15.6947 16.9371C15.6195 16.9556 15.6195 16.9556 15.6759 17.0113C16.0144 17.3456 16.3718 17.6985 16.7103 18.0328C17.1429 18.4599 17.5943 18.9056 18.0269 19.3328C18.6475 19.9456 18.4783 20.967 17.6883 21.3385C17.5567 21.4128 17.4062 21.4313 17.2558 21.4685C17.1805 21.4685 17.0865 21.4685 17.0112 21.4685C16.9924 21.4685 16.9736 21.4685 16.9736 21.4499C16.6727 21.4128 16.4282 21.2642 16.2025 21.0599C15.4502 20.317 14.679 19.5556 13.9267 18.8128C13.8703 18.7571 13.8703 18.7571 13.8139 18.8128C13.0427 19.5742 12.2904 20.317 11.5193 21.0785C11.3876 21.2085 11.256 21.3013 11.0867 21.3756C10.9739 21.4313 10.8422 21.4499 10.7294 21.4685C10.6541 21.4685 10.5789 21.4685 10.4849 21.4685C10.4472 21.4685 10.4284 21.4499 10.3908 21.4499C9.883 21.357 9.54445 21.0785 9.39399 20.5956C9.24352 20.1128 9.35637 19.6856 9.71373 19.3328C10.0335 19.017 10.3344 18.7199 10.6541 18.4042C11.1243 17.9399 11.5945 17.4756 12.0459 17.0299C12.1023 16.9742 12.1023 16.9742 12.0271 16.9556C12.0083 16.9556 11.9707 16.9371 11.9519 16.9371C11.1055 16.7328 10.3344 16.3985 9.60088 15.9528C9.16829 15.6742 8.9614 15.2656 9.01783 14.7642C9.11187 13.8356 10.1651 13.3342 10.9551 13.8356C11.1055 13.9285 11.2372 14.0028 11.4064 14.0771C12.2716 14.5042 13.1932 14.6899 14.1524 14.6342C14.6226 14.6156 15.0928 14.5228 15.563 14.3742C16.0144 14.2256 16.4094 14.0214 16.8232 13.7985C17.5003 13.4085 18.3842 13.7242 18.6475 14.4485C18.6852 14.5599 18.704 14.6528 18.7228 14.7642C18.7228 14.8199 18.7228 14.8756 18.7228 14.9499Z" fill="#CDCDCD"/> </symbol>
<symbol id="phone" viewBox="0 0 18 18"> <path d="M14.2333 11.1504C13.8642 10.7667 13.4191 10.5615 12.9473 10.5615C12.4794 10.5615 12.0304 10.7629 11.6462 11.1466L10.4439 12.3433C10.345 12.2901 10.2461 12.2407 10.151 12.1913C10.014 12.1229 9.88467 12.0583 9.77433 11.9899C8.64819 11.2757 7.62476 10.345 6.64319 9.14067C6.16762 8.54043 5.84804 8.03516 5.61596 7.52229C5.92793 7.23736 6.21708 6.94104 6.49861 6.65611C6.60514 6.54974 6.71167 6.43957 6.8182 6.3332C7.61715 5.5354 7.61715 4.50207 6.8182 3.70427L5.77955 2.66714C5.66161 2.54937 5.53987 2.4278 5.42573 2.30623C5.19746 2.07069 4.95777 1.82755 4.71047 1.59961C4.34143 1.2349 3.9001 1.04115 3.43595 1.04115C2.97179 1.04115 2.52286 1.2349 2.1424 1.59961C2.1386 1.60341 2.1386 1.60341 2.13479 1.60721L0.841243 2.91027C0.35426 3.39655 0.076528 3.9892 0.0156552 4.67682C-0.0756541 5.78614 0.251537 6.81947 0.502638 7.4957C1.11898 9.15587 2.03968 10.6945 3.41312 12.3433C5.07952 14.3301 7.08452 15.8991 9.37486 17.0047C10.2499 17.4187 11.4179 17.9088 12.7229 17.9924C12.8028 17.9962 12.8865 18 12.9626 18C13.8414 18 14.5795 17.6847 15.1578 17.0578C15.1616 17.0502 15.1692 17.0464 15.173 17.0388C15.3708 16.7995 15.5991 16.583 15.8388 16.3512C16.0024 16.1955 16.1698 16.0321 16.3334 15.8612C16.71 15.4699 16.9079 15.014 16.9079 14.5467C16.9079 14.0756 16.7062 13.6235 16.322 13.2436L14.2333 11.1504ZM15.5953 15.1507C15.5915 15.1545 15.5915 15.1507 15.5953 15.1507C15.4469 15.3103 15.2947 15.4547 15.1311 15.6142C14.8838 15.8498 14.6327 16.0967 14.3969 16.374C14.0126 16.7843 13.5599 16.9781 12.9664 16.9781C12.9093 16.9781 12.8484 16.9781 12.7913 16.9743C11.6614 16.9021 10.6113 16.4614 9.82379 16.0853C7.67042 15.0444 5.77955 13.5665 4.20827 11.6936C2.91092 10.1322 2.04348 8.68859 1.46899 7.13859C1.11517 6.19263 0.985816 5.45562 1.04288 4.7604C1.08093 4.31591 1.25214 3.94741 1.56791 3.63209L2.86527 2.33662C3.05169 2.16187 3.24953 2.06689 3.44356 2.06689C3.68324 2.06689 3.87728 2.21125 3.99902 2.33282C4.00283 2.33662 4.00663 2.34042 4.01044 2.34422C4.24251 2.56076 4.46318 2.78491 4.69526 3.02425C4.8132 3.14581 4.93494 3.26738 5.05669 3.39275L6.09533 4.42988C6.49861 4.83258 6.49861 5.20489 6.09533 5.60758C5.985 5.71775 5.87847 5.82792 5.76814 5.9343C5.44856 6.26101 5.14419 6.56494 4.8132 6.86126C4.80559 6.86886 4.79798 6.87266 4.79417 6.88026C4.46698 7.20697 4.52786 7.52609 4.59634 7.74263C4.60014 7.75403 4.60395 7.76543 4.60775 7.77682C4.87787 8.43026 5.25833 9.0457 5.83662 9.77891L5.84043 9.78271C6.89048 11.0744 7.99761 12.0811 9.21887 12.8523C9.37486 12.9511 9.53465 13.0309 9.68683 13.1069C9.82379 13.1752 9.95315 13.2398 10.0635 13.3082C10.0787 13.3158 10.0939 13.3272 10.1091 13.3348C10.2385 13.3994 10.3602 13.4298 10.4858 13.4298C10.8016 13.4298 10.9994 13.2322 11.0641 13.1676L12.3652 11.8684C12.4946 11.7392 12.7 11.5834 12.9397 11.5834C13.1756 11.5834 13.3696 11.7316 13.4876 11.8608C13.4914 11.8646 13.4914 11.8646 13.4952 11.8684L15.5915 13.9616C15.9834 14.3491 15.9834 14.748 15.5953 15.1507Z" fill="#00B2FF"/> <path d="M9.72863 4.28172C10.7254 4.44888 11.6309 4.91996 12.3538 5.64177C13.0766 6.36359 13.5446 7.26776 13.7158 8.2631C13.7577 8.51384 13.9745 8.68859 14.2218 8.68859C14.2522 8.68859 14.2789 8.68479 14.3093 8.68099C14.5908 8.63541 14.7773 8.36947 14.7316 8.08835C14.5262 6.88405 13.9555 5.78614 13.0842 4.91616C12.213 4.04618 11.1135 3.47633 9.90744 3.27118C9.62591 3.22559 9.36339 3.41175 9.31393 3.68907C9.26448 3.9664 9.44709 4.23613 9.72863 4.28172Z" fill="#00B2FF"/> <path d="M17.9921 7.94018C17.6535 5.95709 16.7176 4.15255 15.2795 2.71652C13.8414 1.28049 12.0342 0.345932 10.0482 0.00781895C9.77049 -0.0415684 9.50798 0.148383 9.45852 0.425712C9.41287 0.70684 9.59929 0.968972 9.88083 1.01836C11.6537 1.31848 13.2707 2.15807 14.5566 3.43834C15.8426 4.72241 16.6796 6.33699 16.9801 8.10734C17.022 8.35808 17.2388 8.53283 17.4861 8.53283C17.5166 8.53283 17.5432 8.52903 17.5736 8.52523C17.8514 8.48344 18.0416 8.21751 17.9921 7.94018Z" fill="#00B2FF"/> </symbol>
<symbol id="stopwatch" viewBox="0 0 29 35"> <path d="M3.18833 11.6622L1.70192 10.1904C0.894382 9.39114 0.894382 8.09017 1.70192 7.29042C2.50945 6.49094 3.82351 6.49094 4.63105 7.29042L6.21806 8.86162C7.87359 7.72007 9.7608 6.92993 11.7381 6.55075V4.51172H10.3571C9.97576 4.51172 9.66667 4.2057 9.66667 3.82812V2.05078C9.66667 0.919914 10.5958 0 11.7381 0H17.2619C18.4042 0 19.3333 0.919914 19.3333 2.05078V3.82812C19.3333 4.2057 19.0242 4.51172 18.6429 4.51172H17.2619V6.55075C19.2389 6.92966 21.1264 7.72007 22.7819 8.86162L24.369 7.29042C25.1762 6.49094 26.4903 6.49094 27.2981 7.29042C28.1056 8.0899 28.1056 9.39087 27.2981 10.1904L25.8117 11.6622C27.872 14.203 29 17.3678 29 20.6445C29 28.5601 22.4952 35 14.5 35C6.50477 35 0 28.5601 0 20.6445C0 17.3678 1.12796 14.203 3.18833 11.6622ZM3.65467 8.25706C3.38522 7.99057 2.94747 7.99084 2.67829 8.25706C2.40939 8.52356 2.40939 8.95721 2.67829 9.22371L4.1051 10.636C4.4266 10.3092 4.76375 9.99756 5.11438 9.70249L3.65467 8.25706ZM17.9524 2.05078C17.9524 1.67374 17.6427 1.36719 17.2619 1.36719H11.7381C11.3573 1.36719 11.0476 1.67374 11.0476 2.05078V3.14453H17.9524V2.05078ZM13.119 4.51172V6.35368C14.0342 6.26877 14.9655 6.26877 15.881 6.35368V4.51172H13.119ZM26.3217 8.25706C26.0525 7.99084 25.6145 7.99057 25.3453 8.25706L23.8856 9.70249C24.2363 9.99756 24.5734 10.3092 24.8949 10.636L26.3217 9.22371C26.5906 8.95721 26.5906 8.52356 26.3217 8.25706ZM14.5 33.6328C21.7338 33.6328 27.619 27.8062 27.619 20.6445C27.619 17.4853 26.4606 14.4415 24.3574 12.0732C23.778 11.4208 23.1315 10.8248 22.4359 10.3009C20.6927 8.98766 18.6294 8.12328 16.4689 7.80098C15.8224 7.70512 15.16 7.65625 14.5 7.65625C13.84 7.65625 13.1776 7.70512 12.5313 7.80098C10.3706 8.12328 8.30729 8.98766 6.56384 10.3009C5.86851 10.8248 5.222 11.4208 4.64264 12.0732C2.53939 14.4415 1.38095 17.4853 1.38095 20.6445C1.38095 27.8062 7.26618 33.6328 14.5 33.6328Z" fill="white"/> <path d="M14.5 22.6953C13.3578 22.6953 12.4286 21.7754 12.4286 20.6445C12.4286 19.7535 13.0058 18.9935 13.8095 18.7112V13.8086C13.8095 13.431 14.1186 13.125 14.5 13.125C14.8814 13.125 15.1905 13.431 15.1905 13.8086V18.7112C15.9942 18.9935 16.5714 19.7535 16.5714 20.6445C16.5714 21.7754 15.6423 22.6953 14.5 22.6953ZM14.5 19.9609C14.1192 19.9609 13.8095 20.2675 13.8095 20.6445C13.8095 21.0216 14.1192 21.3281 14.5 21.3281C14.8809 21.3281 15.1905 21.0216 15.1905 20.6445C15.1905 20.2675 14.8809 19.9609 14.5 19.9609Z" fill="white"/> <path d="M7.14455 13.4326C7.15534 13.42 7.16612 13.4075 7.17826 13.3957C7.19121 13.3827 7.20496 13.3709 7.21872 13.3592C8.43568 12.1671 9.93909 11.2851 11.5706 10.8082C11.9366 10.7014 12.3204 10.9081 12.4283 11.2702C12.5362 11.6323 12.3274 12.0125 11.9617 12.1193C10.7528 12.4729 9.62514 13.0838 8.66387 13.8996L9.12967 14.3608C9.39911 14.6278 9.39911 15.0607 9.12967 15.3277C8.99481 15.4612 8.81814 15.528 8.64121 15.528C8.46454 15.528 8.28788 15.4612 8.15302 15.3277L7.68614 14.8655C6.43681 16.3037 5.69482 18.0741 5.55025 19.9609H6.21429C6.59567 19.9609 6.90477 20.2672 6.90477 20.6445C6.90477 21.0221 6.59567 21.3281 6.21429 21.3281H5.55025C5.69482 23.2152 6.43681 24.9853 7.68614 26.4235L8.15302 25.9613C8.42274 25.6946 8.85995 25.6946 9.12967 25.9613C9.39938 26.2283 9.39938 26.6612 9.12967 26.9282L8.66279 27.3905C10.1155 28.6273 11.9037 29.3619 13.8095 29.5053V28.8476C13.8095 28.4701 14.1186 28.164 14.5 28.164C14.8814 28.164 15.1905 28.4701 15.1905 28.8476V29.5051C17.0963 29.3619 18.8845 28.6273 20.3372 27.3905L19.8703 26.9282C19.6006 26.6612 19.6006 26.2283 19.8703 25.9613C20.1401 25.6946 20.5773 25.6946 20.847 25.9613L21.3139 26.4235C22.5632 24.9853 23.3052 23.2149 23.4498 21.3281H22.7857C22.4043 21.3281 22.0952 21.0221 22.0952 20.6445C22.0952 20.2669 22.4043 19.9609 22.7857 19.9609H23.4498C23.3052 18.0741 22.5632 16.3037 21.3139 14.8655L20.847 15.3277C20.7121 15.4612 20.5355 15.528 20.3588 15.528C20.1819 15.528 20.0052 15.4612 19.8703 15.3277C19.6009 15.0607 19.6009 14.6278 19.8703 14.3608L20.3361 13.8996C19.3749 13.0836 18.2472 12.4729 17.0383 12.1193C16.6726 12.0125 16.4638 11.6323 16.5717 11.2702C16.6796 10.9081 17.0631 10.7017 17.4294 10.8082C19.0607 11.2849 20.5635 12.1666 21.7802 13.3581C21.7945 13.3701 21.8085 13.3824 21.8218 13.3955C21.8336 13.4072 21.8441 13.4195 21.8549 13.4318C23.7912 15.3667 24.8571 17.9259 24.8571 20.6445C24.8571 23.3629 23.7912 25.9218 21.8555 27.8564C21.8447 27.869 21.8339 27.8815 21.8218 27.8933C21.8099 27.9053 21.7975 27.9157 21.7851 27.9264C19.8307 29.8431 17.246 30.8984 14.5 30.8984C11.7543 30.8984 9.16958 29.8434 7.21548 27.9269C7.20281 27.916 7.19013 27.9053 7.17826 27.8933C7.16639 27.8818 7.15588 27.8692 7.14509 27.8572C5.20879 25.9223 4.14286 23.3631 4.14286 20.6445C4.14286 17.9261 5.20879 15.3672 7.14455 13.4326Z" fill="white"/> <path d="M14.5 11.7578C14.1189 11.7578 13.8095 11.4515 13.8095 11.0742C13.8095 10.6969 14.1189 10.3906 14.5 10.3906C14.8811 10.3906 15.1905 10.6969 15.1905 11.0742C15.1905 11.4515 14.8811 11.7578 14.5 11.7578Z" fill="white"/> </symbol>
<symbol id="tag" viewBox="0 0 35 35"> <path d="M11.0709 8.58468C10.9437 8.45752 10.7674 8.38436 10.5876 8.38436C10.4078 8.38436 10.2314 8.45752 10.1043 8.58468C9.97719 8.71185 9.90398 8.88824 9.90398 9.06806C9.90398 9.24787 9.97712 9.42426 10.1043 9.55143C10.2314 9.67867 10.4078 9.75175 10.5876 9.75175C10.7674 9.75175 10.9437 9.6786 11.0709 9.55143C11.198 9.42426 11.2712 9.24787 11.2712 9.06806C11.2712 8.88824 11.198 8.71185 11.0709 8.58468Z" fill="#00B2FF"/> <path d="M34.8 2.85866L33.9548 2.01231L34.7998 1.16719C35.0667 0.900207 35.0667 0.46729 34.7998 0.200238C34.5328 -0.0667459 34.1 -0.0667459 33.833 0.200238L32.9885 1.04481L32.1556 0.210835C32.0275 0.0825735 31.8537 0.0103751 31.6724 0.0103067L20.1023 0.00387997C20.1016 0.00387997 20.101 0.00387997 20.1004 0.00387997C19.1868 0.00387997 18.3278 0.359676 17.6818 1.00584L11.9081 6.78034C11.6412 7.04732 11.6412 7.48024 11.9081 7.74729C12.1751 8.01428 12.6079 8.01428 12.8749 7.74729L18.6486 1.97279C19.0364 1.58486 19.5519 1.37134 20.1004 1.37134C20.1008 1.37134 20.1012 1.37134 20.1016 1.37134L31.3884 1.37763L32.0219 2.01183L29.4854 4.54862C28.4099 3.9043 26.9919 4.0448 26.066 4.97066C25.5371 5.49971 25.2459 6.20303 25.2459 6.95113C25.2459 7.69923 25.5371 8.40255 26.066 8.93159C26.612 9.47759 27.3291 9.75059 28.0463 9.75059C28.7634 9.75059 29.4805 9.47759 30.0264 8.93159C30.9508 8.00703 31.0922 6.59164 30.4514 5.51646L32.9881 2.97933L33.6327 3.62481L33.6265 14.8981C33.6261 15.4461 33.4126 15.9614 33.025 16.349L16.3438 33.0327C15.956 33.4205 15.4403 33.6341 14.892 33.6341C14.3436 33.6341 13.8279 33.4205 13.4401 33.0327L1.96861 21.5593C1.58074 21.1715 1.36719 20.6558 1.36719 20.1073C1.36719 19.5588 1.58074 19.0431 1.96861 18.6553L9.33734 11.2854C9.60429 11.0184 9.60429 10.5855 9.33734 10.3185C9.07033 10.0515 8.63762 10.0515 8.37054 10.3185L1.00181 17.6883C0.355811 18.3344 0 19.1935 0 20.1073C0 21.0211 0.355811 21.8802 1.00181 22.5263L12.4733 33.9996C13.1402 34.6665 14.016 35 14.892 35C15.7679 35 16.6437 34.6665 17.3106 33.9996L33.9918 17.3158C34.6373 16.6702 34.993 15.8118 34.9936 14.8987L35 3.34217C35.0001 3.16085 34.9282 2.98692 34.8 2.85866ZM29.0596 7.96457C28.7889 8.23532 28.429 8.38443 28.0463 8.38443C27.6634 8.38443 27.3036 8.23532 27.0329 7.96457C26.474 7.40572 26.474 6.49633 27.0329 5.93748C27.3123 5.65798 27.6792 5.51831 28.0463 5.51831C28.1845 5.51831 28.3227 5.5382 28.4562 5.57786L27.6672 6.36698C27.4003 6.63396 27.4003 7.06688 27.6672 7.33393C27.8007 7.46746 27.9757 7.53419 28.1506 7.53419C28.3255 7.53419 28.5005 7.46746 28.634 7.33393L29.4208 6.547C29.5629 7.03372 29.4427 7.5815 29.0596 7.96457Z" fill="#00B2FF"/> <path d="M29.2003 13.7645L21.2338 5.79669C20.1784 4.74119 18.4612 4.74133 17.406 5.79669L4.79909 18.4056C4.28783 18.9168 4.00626 19.5966 4.00626 20.3197C4.00626 21.0428 4.28776 21.7227 4.79902 22.2339L12.7656 30.2016C13.2769 30.7129 13.9565 30.9945 14.6795 30.9945C15.4024 30.9945 16.0822 30.713 16.5933 30.2017L29.2003 17.5928C29.7116 17.0814 29.9931 16.4017 29.9931 15.6786C29.9931 14.9556 29.7116 14.2758 29.2003 13.7645ZM28.2335 16.6258L15.6266 29.2348C15.3737 29.4878 15.0373 29.6271 14.6795 29.6271C14.3218 29.6271 13.9854 29.4878 13.7325 29.2348L5.76583 21.267C5.51283 21.014 5.37352 20.6776 5.37352 20.3198C5.37345 19.9619 5.51283 19.6255 5.76583 19.3725L18.3728 6.76364C18.6339 6.50247 18.9769 6.37188 19.3199 6.37188C19.6629 6.37188 20.0059 6.50254 20.267 6.76364L28.2335 14.7314C28.4865 14.9844 28.6258 15.3208 28.6258 15.6786C28.6258 16.0364 28.4865 16.3729 28.2335 16.6258Z" fill="#00B2FF"/> <path d="M22.2905 13.677C22.5574 13.41 22.5574 12.9771 22.2905 12.71C22.0235 12.443 21.5908 12.443 21.3237 12.71L20.9301 13.1037C19.879 12.4544 18.5304 12.5415 17.6779 13.394C17.1809 13.8912 16.9266 14.5662 16.9619 15.2949C16.996 15.9985 17.2989 16.6702 17.8149 17.1862C17.8149 17.1862 17.8149 17.1863 17.8149 17.1862C18.3647 17.7364 18.4262 18.5701 17.9518 19.0446C17.4772 19.5191 16.6436 19.4577 16.0936 18.9077C15.5435 18.3575 15.4822 17.5238 15.9566 17.0492C16.2236 16.7822 16.2236 16.3493 15.9566 16.0823C15.6896 15.8153 15.2569 15.8153 14.9898 16.0823C14.1374 16.9348 14.0503 18.2836 14.6995 19.3349L14.2325 19.8019C13.9655 20.0689 13.9655 20.5018 14.2325 20.7689C14.3663 20.9025 14.5413 20.9693 14.7162 20.9693C14.8912 20.9693 15.0661 20.9025 15.1996 20.769L15.6669 20.3016C16.1261 20.5853 16.6419 20.729 17.1486 20.729C17.8014 20.7289 18.4387 20.4915 18.9187 20.0115C19.926 19.004 19.8648 17.3033 18.7823 16.22C18.7825 16.2202 18.7821 16.2198 18.7823 16.22C18.5071 15.9447 18.3452 15.5923 18.3276 15.2287C18.3112 14.8901 18.4238 14.582 18.6448 14.361C19.1192 13.8864 19.9527 13.9478 20.5027 14.4977C20.5027 14.4977 20.5028 14.4978 20.5027 14.4977C21.0526 15.0479 21.1142 15.8817 20.6397 16.3563C20.3728 16.6233 20.3728 17.0562 20.6397 17.3232C20.7732 17.4568 20.9482 17.5235 21.1231 17.5235C21.298 17.5235 21.473 17.4568 21.6065 17.3232C22.4589 16.4706 22.5461 15.1218 21.8969 14.0706L22.2905 13.677Z" fill="#00B2FF"/> <path d="M15.3717 25.0116L11.8607 21.5C11.5938 21.2332 11.1611 21.2331 10.8939 21.5C10.627 21.767 10.627 22.1999 10.8939 22.467L14.405 25.9786C14.5385 26.112 14.7134 26.1788 14.8883 26.1788C15.0633 26.1788 15.2382 26.112 15.3717 25.9786C15.6387 25.7116 15.6387 25.2787 15.3717 25.0116Z" fill="#00B2FF"/> <path d="M9.98794 19.6269C9.86086 19.4998 9.68511 19.4266 9.50471 19.4266C9.32492 19.4266 9.14924 19.4998 9.02141 19.6269C8.89426 19.7541 8.82112 19.9305 8.82112 20.111C8.82112 20.2908 8.89419 20.4672 9.02141 20.5944C9.14856 20.7215 9.32492 20.7947 9.50471 20.7947C9.68518 20.7947 9.86086 20.7215 9.98794 20.5944C10.1158 20.4665 10.1889 20.2908 10.1889 20.111C10.1889 19.9305 10.1158 19.7548 9.98794 19.6269Z" fill="#00B2FF"/> </symbol>
<symbol id="triangle" viewBox="0 0 637 640"> <path opacity="0.2" d="M592.842 159.584L318.167 635.334L43.4923 159.584L592.842 159.584Z" stroke="white"/> <circle cx="43" cy="159" r="5" fill="white"/> <circle cx="318" cy="635" r="5" fill="white"/> <circle cx="593" cy="159" r="5" fill="white"/> </symbol>
<symbol id="vk" viewBox="0 0 27 26"> <path d="M19.475 15.1271C18.3662 14.1029 18.287 14.1029 19.2374 12.9211C20.4254 11.4243 22.0095 9.53349 20.5838 9.53349H17.9701C17.4949 9.53349 17.4157 9.84862 17.2573 10.2425C16.6237 11.7394 15.3565 13.709 14.8812 13.3938C14.406 13.0787 14.6436 11.897 14.6436 10.0062C14.7228 9.76984 14.6436 9.53349 14.4852 9.37592C14.3268 9.21836 14.0892 9.06079 13.8516 9.06079C13.4556 8.98201 13.0596 8.90323 12.6636 8.90323C11.1587 8.90323 10.1291 9.53349 10.6835 9.61227C11.7131 9.76984 11.6339 11.9758 11.3963 12.9211C11.0003 14.5756 9.41624 11.6606 8.70342 10.1638C8.62421 9.76984 8.3074 9.53349 7.91139 9.53349H5.85212C5.53531 9.53349 5.2977 9.61227 5.2977 9.84862C5.2977 10.2425 7.27777 14.1029 9.09943 16.0725C10.9211 17.9632 12.7428 17.8057 14.01 17.8057C14.1684 17.8057 14.3268 17.7269 14.406 17.6481C14.4852 17.5693 14.5644 17.4118 14.5644 17.2542C14.5644 15.9937 15.0396 15.3634 15.9109 16.23C16.8613 17.1754 17.0989 17.8057 18.287 17.8057H20.4254C20.9799 17.8057 21.1383 17.6481 21.1383 17.4118C21.2175 16.8603 20.267 15.8361 19.475 15.1271ZM13.8516 0.000789162C21.2175 0.158354 27.0785 6.06705 26.9993 13.2363C26.9201 20.4055 20.8214 26.0778 13.4556 25.9991C6.01052 25.9203 0.0703125 20.1691 0.0703125 12.9999C0.149515 5.75192 6.32733 -0.0779935 13.8516 0.000789162Z" fill="#CDCDCD"/> </symbol>
</svg>