<svg width="52" height="52" viewBox="0 0 52 52" fill="none" xmlns="http://www.w3.org/2000/svg">
<path d="M32.0667 13.8664C33.1951 13.8664 34.1484 14.5936 34.5072 15.5997H43.4928C43.8516 14.5936 44.8049 13.8664 45.9333 13.8664C47.3668 13.8664 48.5333 15.033 48.5333 16.4664C48.5333 17.8998 47.3668 19.0664 45.9333 19.0664C44.8049 19.0664 43.8516 18.3392 43.4928 17.333H34.5063C34.1475 18.3392 33.1942 19.0664 32.0658 19.0664C30.6323 19.0664 29.4658 17.8998 29.4658 16.4664C29.4658 15.033 30.6332 13.8664 32.0667 13.8664ZM45.9333 17.333C46.4109 17.333 46.8 16.9448 46.8 16.4664C46.8 15.988 46.4109 15.5997 45.9333 15.5997C45.4558 15.5997 45.0667 15.988 45.0667 16.4664C45.0667 16.9448 45.4558 17.333 45.9333 17.333ZM32.0667 17.333C32.5442 17.333 32.9333 16.9448 32.9333 16.4664C32.9333 15.988 32.5442 15.5997 32.0667 15.5997C31.5891 15.5997 31.2 15.988 31.2 16.4664C31.2 16.9448 31.5891 17.333 32.0667 17.333Z" fill="#00B2FF"/>
<path d="M25.1333 19.2258V13.8664C25.1333 13.6359 25.2243 13.4158 25.3873 13.2537L28.8539 9.7871C29.016 9.62417 29.237 9.53317 29.4667 9.53317H32.2261C32.5849 8.52699 33.5383 7.79987 34.6667 7.79987C36.1001 7.79987 37.2667 8.96638 37.2667 10.3998C37.2667 11.8333 36.1001 12.9998 34.6667 12.9998C33.5383 12.9998 32.5849 12.2727 32.2261 11.2665H29.8255L26.8667 14.2252V19.2258C27.8729 19.5846 28.6 20.5379 28.6 21.6663C28.6 23.0997 27.4335 24.2663 26 24.2663C24.5665 24.2663 23.4 23.0997 23.4 21.6663C23.4 20.5379 24.1271 19.5846 25.1333 19.2258ZM34.6667 11.2665C35.1442 11.2665 35.5333 10.8782 35.5333 10.3998C35.5333 9.92143 35.1442 9.53317 34.6667 9.53317C34.1891 9.53317 33.8 9.92143 33.8 10.3998C33.8 10.8782 34.1891 11.2665 34.6667 11.2665ZM26 22.533C26.4775 22.533 26.8667 22.1447 26.8667 21.6663C26.8667 21.1879 26.4775 20.7997 26 20.7997C25.5225 20.7997 25.1333 21.1879 25.1333 21.6663C25.1333 22.1447 25.5225 22.533 26 22.533Z" fill="#00B2FF"/>
<path d="M9.53334 22.533C9.93374 22.533 10.3081 22.6309 10.647 22.7938L12.1333 21.3075V12.9998C12.1333 12.7693 12.2243 12.5491 12.3873 12.3871L21.0609 3.7136C20.8979 3.37474 20.8 3.00035 20.8 2.59996C20.8 1.16651 21.9665 0 23.4 0C24.8335 0 26 1.16651 26 2.59996C26 4.0334 24.8335 5.19991 23.4 5.19991C22.9996 5.19991 22.6252 5.10198 22.2863 4.93905L13.8667 13.3586V21.6663C13.8667 21.8968 13.7757 22.117 13.6127 22.279L11.8725 24.0193C12.0354 24.3581 12.1333 24.7325 12.1333 25.1329C12.1333 26.5664 10.9668 27.7329 9.53334 27.7329C8.09987 27.7329 6.93334 26.5664 6.93334 25.1329C6.93334 23.6995 8.09987 22.533 9.53334 22.533ZM23.4 3.46661C23.8775 3.46661 24.2667 3.07835 24.2667 2.59996C24.2667 2.12156 23.8775 1.7333 23.4 1.7333C22.9225 1.7333 22.5333 2.12156 22.5333 2.59996C22.5333 3.07835 22.9225 3.46661 23.4 3.46661ZM9.53334 25.9996C10.0109 25.9996 10.4 25.6113 10.4 25.1329C10.4 24.6545 10.0109 24.2663 9.53334 24.2663C9.05581 24.2663 8.66667 24.6545 8.66667 25.1329C8.66667 25.6113 9.05581 25.9996 9.53334 25.9996Z" fill="#00B2FF"/>
<path d="M1.73334 12.2926V8.66652C1.73334 8.43599 1.82434 8.21586 1.98728 8.0538L8.05394 1.98723C8.21601 1.8243 8.43701 1.7333 8.66668 1.7333H13.1595C13.5183 0.727121 14.4716 0 15.6 0C17.0335 0 18.2 1.16651 18.2 2.59996C18.2 4.0334 17.0335 5.19991 15.6 5.19991C14.4716 5.19991 13.5183 4.47279 13.1595 3.46661H9.02548L3.46668 9.02532V12.2926C4.47288 12.6514 5.20001 13.6047 5.20001 14.7331C5.20001 16.1665 4.03348 17.333 2.60001 17.333C1.16654 17.333 9.53674e-06 16.1665 9.53674e-06 14.7331C9.53674e-06 13.6047 0.727144 12.6514 1.73334 12.2926ZM15.6 3.46661C16.0775 3.46661 16.4667 3.07835 16.4667 2.59996C16.4667 2.12156 16.0775 1.7333 15.6 1.7333C15.1225 1.7333 14.7333 2.12156 14.7333 2.59996C14.7333 3.07835 15.1225 3.46661 15.6 3.46661ZM2.60001 15.5997C3.07754 15.5997 3.46668 15.2115 3.46668 14.7331C3.46668 14.2547 3.07754 13.8664 2.60001 13.8664C2.12248 13.8664 1.73334 14.2547 1.73334 14.7331C1.73334 15.2115 2.12248 15.5997 2.60001 15.5997Z" fill="#00B2FF"/>
<path d="M13.8658 46.9595V34.5066C12.8605 34.1478 12.1333 33.1945 12.1333 32.0661C12.1333 30.6327 13.2999 29.4662 14.7333 29.4662C15.8617 29.4662 16.8151 30.1933 17.1739 31.1995H26.1595C26.5183 30.1933 27.4716 29.4662 28.6 29.4662C29.7284 29.4662 30.6817 30.1933 31.0405 31.1995H36.0412L39.2609 27.9799C39.0979 27.641 39 27.2666 39 26.8662C39 25.4328 40.1665 24.2663 41.6 24.2663C43.0335 24.2663 44.2 25.4328 44.2 26.8662C44.2 28.2997 43.0335 29.4662 41.6 29.4662C41.1996 29.4662 40.8252 29.3682 40.4863 29.2053L37.0127 32.6789C36.8507 32.8418 36.6297 32.9328 36.4 32.9328H31.0405C30.6817 33.939 29.7284 34.6661 28.6 34.6661C27.4716 34.6661 26.5183 33.939 26.1595 32.9328H17.173C16.9113 33.6668 16.3332 34.2449 15.5991 34.5066V46.9595C16.6053 47.3183 17.3325 48.2717 17.3325 49.4C17.3325 50.8335 16.1659 52 14.7325 52C13.299 52 12.1325 50.8335 12.1325 49.4C12.1325 48.2717 12.8596 47.3183 13.8658 46.9595ZM41.6 27.7329C42.0775 27.7329 42.4667 27.3446 42.4667 26.8662C42.4667 26.3878 42.0775 25.9996 41.6 25.9996C41.1225 25.9996 40.7333 26.3878 40.7333 26.8662C40.7333 27.3446 41.1225 27.7329 41.6 27.7329ZM28.6 32.9328C29.0775 32.9328 29.4667 32.5445 29.4667 32.0661C29.4667 31.5877 29.0775 31.1995 28.6 31.1995C28.1225 31.1995 27.7333 31.5877 27.7333 32.0661C27.7333 32.5445 28.1225 32.9328 28.6 32.9328ZM14.7333 50.2658C15.2109 50.2658 15.6 49.8776 15.6 49.3992C15.6 48.9208 15.2109 48.5325 14.7333 48.5325C14.2558 48.5325 13.8667 48.9208 13.8667 49.3992C13.8667 49.8776 14.2558 50.2658 14.7333 50.2658ZM14.7333 32.9328C15.2109 32.9328 15.6 32.5445 15.6 32.0661C15.6 31.5877 15.2109 31.1995 14.7333 31.1995C14.2558 31.1995 13.8667 31.5877 13.8667 32.0661C13.8667 32.5445 14.2558 32.9328 14.7333 32.9328Z" fill="#00B2FF"/>
<path d="M18.2 17.4925V14.7331C18.2 14.5026 18.291 14.2824 18.4539 14.1204L28.8609 3.7136C28.6979 3.37474 28.6 3.00035 28.6 2.59996C28.6 1.16651 29.7665 0 31.2 0C32.3284 0 33.2817 0.727121 33.6405 1.7333H37.2667C37.7451 1.7333 38.1333 2.1207 38.1333 2.59996V4.84112L41.353 8.06073C41.6919 7.8978 42.0663 7.79987 42.4667 7.79987C43.9001 7.79987 45.0667 8.96638 45.0667 10.3998C45.0667 11.8333 43.9001 12.9998 42.4667 12.9998C41.0332 12.9998 39.8667 11.8333 39.8667 10.3998C39.8667 9.99943 39.9646 9.62504 40.1275 9.28618L36.6539 5.81264C36.491 5.65057 36.4 5.43044 36.4 5.19991V3.46661H33.6405C33.2817 4.47279 32.3284 5.19991 31.2 5.19991C30.7996 5.19991 30.4252 5.10198 30.0863 4.93905L19.9333 15.0919V17.4925C20.9395 17.8513 21.6667 18.8046 21.6667 19.933C21.6667 21.3664 20.5001 22.533 19.0667 22.533C17.6332 22.533 16.4667 21.3664 16.4667 19.933C16.4667 18.8046 17.1938 17.8513 18.2 17.4925ZM42.4667 11.2665C42.9442 11.2665 43.3333 10.8782 43.3333 10.3998C43.3333 9.92143 42.9442 9.53317 42.4667 9.53317C41.9891 9.53317 41.6 9.92143 41.6 10.3998C41.6 10.8782 41.9891 11.2665 42.4667 11.2665ZM31.2 3.46661C31.6775 3.46661 32.0667 3.07835 32.0667 2.59996C32.0667 2.12156 31.6775 1.7333 31.2 1.7333C30.7225 1.7333 30.3333 2.12156 30.3333 2.59996C30.3333 3.07835 30.7225 3.46661 31.2 3.46661ZM19.0667 20.7997C19.5442 20.7997 19.9333 20.4114 19.9333 19.933C19.9333 19.4546 19.5442 19.0663 19.0667 19.0663C18.5891 19.0663 18.2 19.4546 18.2 19.933C18.2 20.4114 18.5891 20.7997 19.0667 20.7997Z" fill="#00B2FF"/>
<path d="M20.8 24.2663C21.9284 24.2663 22.8817 24.9934 23.2405 25.9996H33.4412L38.3873 21.0536C38.5493 20.8906 38.7703 20.7997 39 20.7997H48.1745L50.2667 18.7076V11.6253L43.5803 4.93905C43.2415 5.10198 42.8671 5.19991 42.4667 5.19991C41.0332 5.19991 39.8667 4.0334 39.8667 2.59996C39.8667 1.16651 41.0332 0 42.4667 0C43.9001 0 45.0667 1.16651 45.0667 2.59996C45.0667 3.00035 44.9687 3.37474 44.8058 3.7136L51.7461 10.6538C51.909 10.8158 52 11.0359 52 11.2665V19.0663C52 19.2969 51.909 19.517 51.7461 19.6791L49.1461 22.279C48.984 22.442 48.763 22.533 48.5333 22.533H39.3588L34.4127 27.4789C34.2507 27.6419 34.0297 27.7329 33.8 27.7329H23.2405C22.8817 28.7391 21.9284 29.4662 20.8 29.4662C19.3665 29.4662 18.2 28.2997 18.2 26.8662C18.2 25.4328 19.3665 24.2663 20.8 24.2663ZM42.4667 1.7333C41.9891 1.7333 41.6 2.12156 41.6 2.59996C41.6 3.07835 41.9891 3.46661 42.4667 3.46661C42.9442 3.46661 43.3333 3.07835 43.3333 2.59996C43.3333 2.12156 42.9442 1.7333 42.4667 1.7333ZM20.8 27.7329C21.2775 27.7329 21.6667 27.3446 21.6667 26.8662C21.6667 26.3878 21.2775 25.9996 20.8 25.9996C20.3225 25.9996 19.9333 26.3878 19.9333 26.8662C19.9333 27.3446 20.3225 27.7329 20.8 27.7329Z" fill="#00B2FF"/>
<path d="M2.6 20.7997C3.0004 20.7997 3.3748 20.8976 3.71367 21.0605L6.93333 17.8409V12.8403C5.92713 12.4815 5.2 11.5282 5.2 10.3998C5.2 8.96638 6.36653 7.79987 7.8 7.79987C9.23347 7.79987 10.4 8.96638 10.4 10.3998C10.4 11.5282 9.67287 12.4815 8.66667 12.8403V18.1997C8.66667 18.4302 8.57567 18.6504 8.41273 18.8124L4.93913 22.286C5.10207 22.6248 5.2 22.9992 5.2 23.3996C5.2 24.528 4.47287 25.4813 3.46667 25.8401V26.5074L10.1461 33.1867C10.309 33.3488 10.4 33.5689 10.4 33.7994V34.8256C11.4062 35.1843 12.1333 36.1377 12.1333 37.266C12.1333 38.3944 11.4062 39.3477 10.4 39.7065V41.7596C11.4062 42.1184 12.1333 43.0718 12.1333 44.2001C12.1333 45.6336 10.9668 46.8001 9.53333 46.8001C8.09987 46.8001 6.93333 45.6336 6.93333 44.2001C6.93333 43.0718 7.66047 42.1184 8.66667 41.7596V39.7065C7.66047 39.3477 6.93333 38.3944 6.93333 37.266C6.93333 36.1377 7.66047 35.1843 8.66667 34.8256V34.1582L1.98727 27.4789C1.82433 27.3169 1.73333 27.0967 1.73333 26.8662V25.8401C0.727133 25.4813 0 24.528 0 23.3996C0 21.9662 1.16653 20.7997 2.6 20.7997ZM7.8 11.2665C8.27753 11.2665 8.66667 10.8782 8.66667 10.3998C8.66667 9.92143 8.27753 9.53317 7.8 9.53317C7.32247 9.53317 6.93333 9.92143 6.93333 10.3998C6.93333 10.8782 7.32247 11.2665 7.8 11.2665ZM9.53333 45.0659C10.0109 45.0659 10.4 44.6777 10.4 44.1993C10.4 43.7209 10.0109 43.3326 9.53333 43.3326C9.0558 43.3326 8.66667 43.7209 8.66667 44.1993C8.66667 44.6777 9.0558 45.0659 9.53333 45.0659ZM9.53333 38.1327C10.0109 38.1327 10.4 37.7444 10.4 37.266C10.4 36.7877 10.0109 36.3994 9.53333 36.3994C9.0558 36.3994 8.66667 36.7877 8.66667 37.266C8.66667 37.7444 9.0558 38.1327 9.53333 38.1327ZM2.6 24.2663C3.07753 24.2663 3.46667 23.878 3.46667 23.3996C3.46667 22.9212 3.07753 22.533 2.6 22.533C2.12247 22.533 1.73333 22.9212 1.73333 23.3996C1.73333 23.878 2.12247 24.2663 2.6 24.2663Z" fill="#00B2FF"/>
</svg>
