<svg width="35" height="35" viewBox="0 0 35 35" fill="none" xmlns="http://www.w3.org/2000/svg">
<path d="M11.0709 8.58468C10.9437 8.45752 10.7674 8.38436 10.5876 8.38436C10.4078 8.38436 10.2314 8.45752 10.1043 8.58468C9.97719 8.71185 9.90398 8.88824 9.90398 9.06806C9.90398 9.24787 9.97712 9.42426 10.1043 9.55143C10.2314 9.67867 10.4078 9.75175 10.5876 9.75175C10.7674 9.75175 10.9437 9.6786 11.0709 9.55143C11.198 9.42426 11.2712 9.24787 11.2712 9.06806C11.2712 8.88824 11.198 8.71185 11.0709 8.58468Z" fill="#00B2FF"/>
<path d="M34.8 2.85866L33.9548 2.01231L34.7998 1.16719C35.0667 0.900207 35.0667 0.46729 34.7998 0.200238C34.5328 -0.0667459 34.1 -0.0667459 33.833 0.200238L32.9885 1.04481L32.1556 0.210835C32.0275 0.0825735 31.8537 0.0103751 31.6724 0.0103067L20.1023 0.00387997C20.1016 0.00387997 20.101 0.00387997 20.1004 0.00387997C19.1868 0.00387997 18.3278 0.359676 17.6818 1.00584L11.9081 6.78034C11.6412 7.04732 11.6412 7.48024 11.9081 7.74729C12.1751 8.01428 12.6079 8.01428 12.8749 7.74729L18.6486 1.97279C19.0364 1.58486 19.5519 1.37134 20.1004 1.37134C20.1008 1.37134 20.1012 1.37134 20.1016 1.37134L31.3884 1.37763L32.0219 2.01183L29.4854 4.54862C28.4099 3.9043 26.9919 4.0448 26.066 4.97066C25.5371 5.49971 25.2459 6.20303 25.2459 6.95113C25.2459 7.69923 25.5371 8.40255 26.066 8.93159C26.612 9.47759 27.3291 9.75059 28.0463 9.75059C28.7634 9.75059 29.4805 9.47759 30.0264 8.93159C30.9508 8.00703 31.0922 6.59164 30.4514 5.51646L32.9881 2.97933L33.6327 3.62481L33.6265 14.8981C33.6261 15.4461 33.4126 15.9614 33.025 16.349L16.3438 33.0327C15.956 33.4205 15.4403 33.6341 14.892 33.6341C14.3436 33.6341 13.8279 33.4205 13.4401 33.0327L1.96861 21.5593C1.58074 21.1715 1.36719 20.6558 1.36719 20.1073C1.36719 19.5588 1.58074 19.0431 1.96861 18.6553L9.33734 11.2854C9.60429 11.0184 9.60429 10.5855 9.33734 10.3185C9.07033 10.0515 8.63762 10.0515 8.37054 10.3185L1.00181 17.6883C0.355811 18.3344 0 19.1935 0 20.1073C0 21.0211 0.355811 21.8802 1.00181 22.5263L12.4733 33.9996C13.1402 34.6665 14.016 35 14.892 35C15.7679 35 16.6437 34.6665 17.3106 33.9996L33.9918 17.3158C34.6373 16.6702 34.993 15.8118 34.9936 14.8987L35 3.34217C35.0001 3.16085 34.9282 2.98692 34.8 2.85866ZM29.0596 7.96457C28.7889 8.23532 28.429 8.38443 28.0463 8.38443C27.6634 8.38443 27.3036 8.23532 27.0329 7.96457C26.474 7.40572 26.474 6.49633 27.0329 5.93748C27.3123 5.65798 27.6792 5.51831 28.0463 5.51831C28.1845 5.51831 28.3227 5.5382 28.4562 5.57786L27.6672 6.36698C27.4003 6.63396 27.4003 7.06688 27.6672 7.33393C27.8007 7.46746 27.9757 7.53419 28.1506 7.53419C28.3255 7.53419 28.5005 7.46746 28.634 7.33393L29.4208 6.547C29.5629 7.03372 29.4427 7.5815 29.0596 7.96457Z" fill="#00B2FF"/>
<path d="M29.2003 13.7645L21.2338 5.79669C20.1784 4.74119 18.4612 4.74133 17.406 5.79669L4.79909 18.4056C4.28783 18.9168 4.00626 19.5966 4.00626 20.3197C4.00626 21.0428 4.28776 21.7227 4.79902 22.2339L12.7656 30.2016C13.2769 30.7129 13.9565 30.9945 14.6795 30.9945C15.4024 30.9945 16.0822 30.713 16.5933 30.2017L29.2003 17.5928C29.7116 17.0814 29.9931 16.4017 29.9931 15.6786C29.9931 14.9556 29.7116 14.2758 29.2003 13.7645ZM28.2335 16.6258L15.6266 29.2348C15.3737 29.4878 15.0373 29.6271 14.6795 29.6271C14.3218 29.6271 13.9854 29.4878 13.7325 29.2348L5.76583 21.267C5.51283 21.014 5.37352 20.6776 5.37352 20.3198C5.37345 19.9619 5.51283 19.6255 5.76583 19.3725L18.3728 6.76364C18.6339 6.50247 18.9769 6.37188 19.3199 6.37188C19.6629 6.37188 20.0059 6.50254 20.267 6.76364L28.2335 14.7314C28.4865 14.9844 28.6258 15.3208 28.6258 15.6786C28.6258 16.0364 28.4865 16.3729 28.2335 16.6258Z" fill="#00B2FF"/>
<path d="M22.2905 13.677C22.5574 13.41 22.5574 12.9771 22.2905 12.71C22.0235 12.443 21.5908 12.443 21.3237 12.71L20.9301 13.1037C19.879 12.4544 18.5304 12.5415 17.6779 13.394C17.1809 13.8912 16.9266 14.5662 16.9619 15.2949C16.996 15.9985 17.2989 16.6702 17.8149 17.1862C17.8149 17.1862 17.8149 17.1863 17.8149 17.1862C18.3647 17.7364 18.4262 18.5701 17.9518 19.0446C17.4772 19.5191 16.6436 19.4577 16.0936 18.9077C15.5435 18.3575 15.4822 17.5238 15.9566 17.0492C16.2236 16.7822 16.2236 16.3493 15.9566 16.0823C15.6896 15.8153 15.2569 15.8153 14.9898 16.0823C14.1374 16.9348 14.0503 18.2836 14.6995 19.3349L14.2325 19.8019C13.9655 20.0689 13.9655 20.5018 14.2325 20.7689C14.3663 20.9025 14.5413 20.9693 14.7162 20.9693C14.8912 20.9693 15.0661 20.9025 15.1996 20.769L15.6669 20.3016C16.1261 20.5853 16.6419 20.729 17.1486 20.729C17.8014 20.7289 18.4387 20.4915 18.9187 20.0115C19.926 19.004 19.8648 17.3033 18.7823 16.22C18.7825 16.2202 18.7821 16.2198 18.7823 16.22C18.5071 15.9447 18.3452 15.5923 18.3276 15.2287C18.3112 14.8901 18.4238 14.582 18.6448 14.361C19.1192 13.8864 19.9527 13.9478 20.5027 14.4977C20.5027 14.4977 20.5028 14.4978 20.5027 14.4977C21.0526 15.0479 21.1142 15.8817 20.6397 16.3563C20.3728 16.6233 20.3728 17.0562 20.6397 17.3232C20.7732 17.4568 20.9482 17.5235 21.1231 17.5235C21.298 17.5235 21.473 17.4568 21.6065 17.3232C22.4589 16.4706 22.5461 15.1218 21.8969 14.0706L22.2905 13.677Z" fill="#00B2FF"/>
<path d="M15.3717 25.0116L11.8607 21.5C11.5938 21.2332 11.1611 21.2331 10.8939 21.5C10.627 21.767 10.627 22.1999 10.8939 22.467L14.405 25.9786C14.5385 26.112 14.7134 26.1788 14.8883 26.1788C15.0633 26.1788 15.2382 26.112 15.3717 25.9786C15.6387 25.7116 15.6387 25.2787 15.3717 25.0116Z" fill="#00B2FF"/>
<path d="M9.98794 19.6269C9.86086 19.4998 9.68511 19.4266 9.50471 19.4266C9.32492 19.4266 9.14924 19.4998 9.02141 19.6269C8.89426 19.7541 8.82112 19.9305 8.82112 20.111C8.82112 20.2908 8.89419 20.4672 9.02141 20.5944C9.14856 20.7215 9.32492 20.7947 9.50471 20.7947C9.68518 20.7947 9.86086 20.7215 9.98794 20.5944C10.1158 20.4665 10.1889 20.2908 10.1889 20.111C10.1889 19.9305 10.1158 19.7548 9.98794 19.6269Z" fill="#00B2FF"/>
</svg>
